<svg width="24" height="24" viewBox="0 0 24 24" fill="none" xmlns="http://www.w3.org/2000/svg">
<path fill-rule="evenodd" clip-rule="evenodd" d="M9.00001 6.75C8.8011 6.75 8.61034 6.67098 8.46968 6.53033C8.32903 6.38968 8.25001 6.19891 8.25001 6C8.25001 5.80109 8.32903 5.61032 8.46968 5.46967C8.61034 5.32902 8.8011 5.25 9.00001 5.25H18C18.1989 5.25 18.3897 5.32902 18.5303 5.46967C18.671 5.61032 18.75 5.80109 18.75 6V15C18.75 15.1989 18.671 15.3897 18.5303 15.5303C18.3897 15.671 18.1989 15.75 18 15.75C17.8011 15.75 17.6103 15.671 17.4697 15.5303C17.329 15.3897 17.25 15.1989 17.25 15V7.81L6.53001 18.53C6.38784 18.6625 6.19979 18.7346 6.00549 18.7312C5.81119 18.7277 5.62581 18.649 5.48839 18.5116C5.35098 18.3742 5.27227 18.1888 5.26884 17.9945C5.26541 17.8002 5.33753 17.6122 5.47001 17.47L16.19 6.75H9.00001Z" fill="black" fill-opacity="0.5"/>
</svg>
