<svg width="24" height="24" viewBox="0 0 24 24" fill="none" xmlns="http://www.w3.org/2000/svg">
<path fill-rule="evenodd" clip-rule="evenodd" d="M22 12C22 17.523 17.523 22 12 22C10.4 22 8.88798 21.624 7.54798 20.956C7.19412 20.7727 6.78536 20.7254 6.39898 20.823L4.17298 21.419C3.95265 21.4778 3.72074 21.4776 3.50051 21.4184C3.28028 21.3593 3.07949 21.2432 2.9183 21.0819C2.7571 20.9206 2.64117 20.7197 2.58214 20.4995C2.52311 20.2792 2.52305 20.0473 2.58198 19.827L3.17698 17.601C3.27404 17.2148 3.22637 16.8065 3.04298 16.453C2.35461 15.0697 1.99753 13.5451 1.99998 12C1.99998 6.477 6.47698 2 12 2C17.523 2 22 6.477 22 12ZM15.53 9.47C15.6704 9.61063 15.7493 9.80125 15.7493 10C15.7493 10.1988 15.6704 10.3894 15.53 10.53L11.53 14.53C11.3912 14.6689 11.2035 14.7479 11.0072 14.7499C10.8109 14.752 10.6216 14.677 10.48 14.541L8.47998 12.621C8.3365 12.4831 8.25368 12.2938 8.24974 12.0948C8.24779 11.9963 8.26527 11.8984 8.30117 11.8066C8.33707 11.7148 8.39069 11.631 8.45898 11.56C8.52727 11.489 8.60888 11.4321 8.69916 11.3926C8.78944 11.353 8.88661 11.3317 8.98513 11.3298C9.18411 11.3258 9.3765 11.4011 9.51998 11.539L10.99 12.95L14.47 9.47C14.6106 9.32955 14.8012 9.25066 15 9.25066C15.1987 9.25066 15.3894 9.32955 15.53 9.47Z" fill="#B2B2B2"/>
</svg>
