<svg width="24" height="24" viewBox="0 0 24 24" fill="none" xmlns="http://www.w3.org/2000/svg">
<path fill-rule="evenodd" clip-rule="evenodd" d="M5.25002 10.055V8C5.25002 6.20979 5.96117 4.4929 7.22704 3.22703C8.49292 1.96116 10.2098 1.25 12 1.25C13.7902 1.25 15.5071 1.96116 16.773 3.22703C18.0389 4.4929 18.75 6.20979 18.75 8V10.055C19.865 10.138 20.59 10.348 21.121 10.879C22 11.757 22 13.172 22 16C22 18.828 22 20.243 21.121 21.121C20.243 22 18.828 22 16 22H8.00002C5.17202 22 3.75702 22 2.87902 21.121C2.00002 20.243 2.00002 18.828 2.00002 16C2.00002 13.172 2.00002 11.757 2.87902 10.879C3.40902 10.348 4.13502 10.138 5.25002 10.055ZM6.75002 8C6.75002 6.60761 7.30314 5.27226 8.2877 4.28769C9.27227 3.30312 10.6076 2.75 12 2.75C13.3924 2.75 14.7278 3.30312 15.7123 4.28769C16.6969 5.27226 17.25 6.60761 17.25 8V10.004C16.8673 10.0007 16.4507 9.99933 16 10H8.00002C7.54868 9.99933 7.13202 10.0007 6.75002 10.004V8ZM8.00002 17C8.26523 17 8.51959 16.8946 8.70712 16.7071C8.89466 16.5196 9.00002 16.2652 9.00002 16C9.00002 15.7348 8.89466 15.4804 8.70712 15.2929C8.51959 15.1054 8.26523 15 8.00002 15C7.7348 15 7.48045 15.1054 7.29291 15.2929C7.10537 15.4804 7.00002 15.7348 7.00002 16C7.00002 16.2652 7.10537 16.5196 7.29291 16.7071C7.48045 16.8946 7.7348 17 8.00002 17ZM12 17C12.2652 17 12.5196 16.8946 12.7071 16.7071C12.8947 16.5196 13 16.2652 13 16C13 15.7348 12.8947 15.4804 12.7071 15.2929C12.5196 15.1054 12.2652 15 12 15C11.7348 15 11.4804 15.1054 11.2929 15.2929C11.1054 15.4804 11 15.7348 11 16C11 16.2652 11.1054 16.5196 11.2929 16.7071C11.4804 16.8946 11.7348 17 12 17ZM17 16C17 16.2652 16.8947 16.5196 16.7071 16.7071C16.5196 16.8946 16.2652 17 16 17C15.7348 17 15.4804 16.8946 15.2929 16.7071C15.1054 16.5196 15 16.2652 15 16C15 15.7348 15.1054 15.4804 15.2929 15.2929C15.4804 15.1054 15.7348 15 16 15C16.2652 15 16.5196 15.1054 16.7071 15.2929C16.8947 15.4804 17 15.7348 17 16Z" fill="#B2B2B2"/>
</svg>
