<svg width="14" height="14" viewBox="0 0 14 14" fill="none" xmlns="http://www.w3.org/2000/svg">
<path d="M5.33925 3.15463C6.07834 1.82929 6.44759 1.16663 7 1.16663C7.55242 1.16663 7.92167 1.82929 8.66075 3.15463L8.85209 3.49763C9.06209 3.87446 9.16709 4.06288 9.33042 4.18713C9.49375 4.31138 9.69792 4.35746 10.1063 4.44963L10.4773 4.53363C11.9123 4.85854 12.6292 5.02071 12.8001 5.56963C12.9704 6.11796 12.4816 6.69021 11.5033 7.83413L11.2502 8.12988C10.9725 8.45479 10.8331 8.61754 10.7707 8.81821C10.7083 9.01946 10.7293 9.23646 10.7713 9.66988L10.8098 10.0648C10.9573 11.5914 11.0314 12.3544 10.5846 12.6933C10.1378 13.0322 9.46575 12.723 8.12292 12.1047L7.77467 11.9449C7.39317 11.7687 7.20242 11.6812 7 11.6812C6.79759 11.6812 6.60684 11.7687 6.22534 11.9449L5.87767 12.1047C4.53425 12.723 3.86225 13.0322 3.416 12.6939C2.96859 12.3544 3.04267 11.5914 3.19025 10.0648L3.22875 9.67046C3.27075 9.23646 3.29175 9.01946 3.22875 8.81879C3.16692 8.61754 3.0275 8.45479 2.74984 8.13046L2.49667 7.83413C1.51842 6.69079 1.02959 6.11854 1.19992 5.56963C1.37025 5.02071 2.08834 4.85796 3.52334 4.53363L3.89434 4.44963C4.30209 4.35746 4.50567 4.31138 4.66959 4.18713C4.8335 4.06288 4.93792 3.87446 5.14792 3.49763L5.33925 3.15463Z" fill="#FFE100"/>
</svg>
