<svg width="24" height="24" viewBox="0 0 24 24" fill="none" xmlns="http://www.w3.org/2000/svg">
<path fill-rule="evenodd" clip-rule="evenodd" d="M3.46402 3.464C2.00002 4.93 2.00002 7.286 2.00002 12C2.00002 16.714 2.00002 19.071 3.46402 20.535C4.93002 22 7.28602 22 12 22C16.714 22 19.071 22 20.535 20.535C22 19.072 22 16.714 22 12C22 7.286 22 4.929 20.535 3.464C19.072 2 16.714 2 12 2C7.28602 2 4.92902 2 3.46402 3.464ZM5.46102 11.084C5.64655 9.47738 6.41641 7.99508 7.62404 6.9193C8.83166 5.84352 10.3927 5.24938 12.01 5.25C13.992 5.25 15.77 6.125 16.977 7.507C17.1031 7.65747 17.1651 7.85138 17.1499 8.04709C17.1346 8.2428 17.0431 8.42472 16.8952 8.55379C16.7473 8.68285 16.5547 8.74878 16.3587 8.73741C16.1627 8.72605 15.979 8.6383 15.847 8.493C15.3694 7.94482 14.7797 7.50554 14.1178 7.20484C13.4558 6.90414 12.7371 6.74903 12.01 6.75C10.7906 6.74914 9.61143 7.18606 8.68701 7.98128C7.76259 8.7765 7.15437 9.87716 6.97302 11.083H7.33702C7.48546 11.0829 7.63059 11.1269 7.75402 11.2094C7.87745 11.2919 7.97363 11.4091 8.03038 11.5463C8.08713 11.6834 8.1019 11.8344 8.07282 11.9799C8.04374 12.1255 7.97211 12.2592 7.86702 12.364L6.69802 13.531C6.55739 13.6715 6.36677 13.7503 6.16802 13.7503C5.96926 13.7503 5.77864 13.6715 5.63802 13.531L4.47002 12.364C4.36526 12.2591 4.29393 12.1255 4.26505 11.9801C4.23617 11.8347 4.25102 11.684 4.30773 11.5471C4.36444 11.4101 4.46047 11.293 4.58368 11.2106C4.7069 11.1282 4.85178 11.0841 5.00002 11.084H5.46102ZM17.301 10.469C17.4416 10.3285 17.6323 10.2497 17.831 10.2497C18.0298 10.2497 18.2204 10.3285 18.361 10.469L19.53 11.636C19.6348 11.7409 19.7061 11.8745 19.735 12.0199C19.7639 12.1653 19.749 12.316 19.6923 12.4529C19.6356 12.5899 19.5396 12.707 19.4163 12.7894C19.2931 12.8718 19.1483 12.9159 19 12.916H18.54C18.3545 14.5228 17.5845 16.0052 16.3766 17.081C15.1688 18.1568 13.6075 18.7509 11.99 18.75C11.0489 18.751 10.1186 18.5502 9.2617 18.161C8.40485 17.7718 7.64145 17.2034 7.02302 16.494C6.89213 16.3442 6.82613 16.1484 6.83954 15.9499C6.85295 15.7514 6.94467 15.5664 7.09452 15.4355C7.24436 15.3046 7.44007 15.2386 7.63857 15.252C7.83708 15.2654 8.02213 15.3572 8.15302 15.507C8.63071 16.0553 9.22057 16.4947 9.8827 16.7954C10.5448 17.0961 11.2638 17.2511 11.991 17.25C13.2102 17.2506 14.3892 16.8136 15.3134 16.0184C16.2376 15.2232 16.8457 14.1227 17.027 12.917H16.664C16.5156 12.9171 16.3704 12.8731 16.247 12.7906C16.1236 12.7081 16.0274 12.5909 15.9706 12.4537C15.9139 12.3166 15.8991 12.1656 15.9282 12.0201C15.9573 11.8745 16.0289 11.7408 16.134 11.636L17.301 10.469Z" fill="#B2B2B2"/>
</svg>
