<svg width="115" height="40" viewBox="0 0 115 40" fill="none" xmlns="http://www.w3.org/2000/svg">
<g clip-path="url(#clip0_30_16)">
<mask id="mask0_30_16" style="mask-type:luminance" maskUnits="userSpaceOnUse" x="0" y="0" width="40" height="40">
<path d="M40 0H0V40H40V0Z" fill="white"/>
</mask>
<g mask="url(#mask0_30_16)">
<path d="M40 20C40 8.9543 31.0457 0 20 0C8.9543 0 0 8.9543 0 20C0 31.0457 8.9543 40 20 40C31.0457 40 40 31.0457 40 20Z" fill="#333333"/>
<path fill-rule="evenodd" clip-rule="evenodd" d="M13.3276 10.5859H22.6555C22.366 11.4545 22.0255 12.3435 21.6283 13.247H13.3276C12.5918 13.247 11.997 13.8418 11.997 14.5776V22.561C11.997 23.2955 12.5918 23.8916 13.3276 23.8916H14.2905C13.5139 24.6821 12.6802 25.4675 11.7859 26.2442C10.3468 25.6412 9.33591 24.2192 9.33591 22.561V14.5776C9.33591 12.3729 11.1229 10.5859 13.3276 10.5859ZM20.7602 26.5527H14.7196C14.9634 25.7307 15.283 24.8397 15.7006 23.8916H21.8299L25.3027 27.3324V23.8916H26.6333C27.3691 23.8916 27.9639 23.2955 27.9639 22.561V14.5776C27.9639 13.8418 27.3691 13.247 26.6333 13.247H23.7979C25.54 11.8511 26.9906 11.1469 27.9221 10.7985C29.4943 11.3344 30.625 12.8239 30.625 14.5776V22.561C30.625 24.296 29.51 25.7584 27.9639 26.3079V30.5444C27.9639 31.2789 27.3691 31.875 26.6333 31.875C25.9068 31.875 25.6925 31.4851 25.6925 31.4851L20.7602 26.5527ZM17.3002 22.6041C16.5537 22.6041 15.9843 22.4233 15.5918 22.0616C15.1993 21.6922 15.003 21.1689 15.003 20.4917V16.5437C15.003 15.905 15.2032 15.3932 15.6034 15.0084C16.0035 14.6236 16.573 14.4312 17.3118 14.4312C17.7043 14.4312 18.039 14.4889 18.3161 14.6044C18.6009 14.7198 18.8279 14.8737 18.9972 15.0661C19.1742 15.2508 19.3012 15.4702 19.3781 15.7241C19.4627 15.9704 19.5051 16.2282 19.5051 16.4975V16.636C19.5051 16.6822 19.5012 16.7245 19.4935 16.763L17.6235 16.9824C17.6389 16.7361 17.6196 16.5437 17.5657 16.4052C17.5119 16.259 17.4195 16.1859 17.2887 16.1859C17.1733 16.1859 17.0925 16.232 17.0463 16.3244C17.0078 16.409 16.9885 16.5091 16.9885 16.6245V20.4685C16.9885 20.5763 17.0117 20.6687 17.0579 20.7456C17.1117 20.8149 17.1925 20.8495 17.3002 20.8495C17.3849 20.8495 17.4542 20.8187 17.508 20.7572C17.5696 20.6879 17.6004 20.5879 17.6004 20.457V19.4181H17.254V17.8712H19.5974L19.609 20.5147C19.609 20.8457 19.5474 21.1419 19.4243 21.4036C19.3089 21.6575 19.1472 21.8769 18.9394 22.0616C18.7317 22.2386 18.4854 22.3732 18.2007 22.4656C17.9236 22.558 17.6235 22.6041 17.3002 22.6041ZM24.896 21.1496C24.9807 20.8418 25.023 20.4994 25.023 20.1222C25.023 19.8144 24.9961 19.5374 24.9422 19.2911C24.896 19.0449 24.8037 18.8217 24.6652 18.6215C24.5267 18.4138 24.3342 18.2252 24.088 18.0559C23.8494 17.8789 23.5339 17.7135 23.1414 17.5595C22.9644 17.4903 22.822 17.421 22.7143 17.3518C22.6142 17.2825 22.5373 17.2132 22.4834 17.144C22.4295 17.0747 22.3949 17.0055 22.3795 16.9362C22.3641 16.8669 22.3564 16.7938 22.3564 16.7169C22.3564 16.5784 22.3757 16.459 22.4142 16.359C22.4526 16.259 22.5296 16.2089 22.645 16.2089C22.7682 16.2089 22.8451 16.2628 22.8759 16.3705C22.9144 16.4783 22.9298 16.6437 22.922 16.8669L24.9307 16.6707C24.9307 16.409 24.896 16.1474 24.8268 15.8857C24.7575 15.6164 24.6344 15.3739 24.4574 15.1585C24.288 14.943 24.061 14.7699 23.7763 14.639C23.4915 14.5005 23.1299 14.4312 22.6912 14.4312C22.2833 14.4312 21.9332 14.4889 21.6407 14.6044C21.3483 14.7198 21.1059 14.8814 20.9135 15.0892C20.7211 15.297 20.5787 15.5432 20.4864 15.828C20.394 16.1127 20.3479 16.4244 20.3479 16.763C20.3479 17.0247 20.3709 17.271 20.4171 17.5019C20.471 17.7327 20.5672 17.9482 20.7057 18.1483C20.8519 18.3484 21.052 18.5407 21.306 18.7255C21.5676 18.9102 21.9062 19.0872 22.3218 19.2565C22.5604 19.3565 22.7259 19.4797 22.8182 19.6259C22.9105 19.7644 22.9567 19.9529 22.9567 20.1915C22.9567 20.3916 22.9336 20.5455 22.8874 20.6532C22.8413 20.761 22.7566 20.8149 22.6335 20.8149C22.595 20.8149 22.5565 20.8072 22.518 20.7918C22.4873 20.7764 22.4565 20.7456 22.4257 20.6994C22.3949 20.6532 22.3719 20.5879 22.3564 20.5032C22.341 20.4109 22.3372 20.2877 22.3449 20.1338L20.3594 20.3069C20.3594 20.6071 20.4017 20.8957 20.4864 21.1727C20.571 21.4498 20.7057 21.696 20.8904 21.9115C21.0751 22.1193 21.3098 22.2886 21.5945 22.4194C21.8793 22.5425 22.2217 22.6041 22.6219 22.6041C23.0606 22.6041 23.4339 22.5464 23.7417 22.431C24.0495 22.3079 24.2958 22.1385 24.4805 21.923C24.6729 21.7075 24.8114 21.4498 24.896 21.1496Z" fill="#FFD945"/>
</g>
</g>
<path d="M49.92 20.24C49.1947 20.24 48.504 20.112 47.848 19.856C47.192 19.5947 46.6107 19.2107 46.104 18.704C45.6027 18.1973 45.2053 17.5707 44.912 16.824C44.624 16.0773 44.48 15.216 44.48 14.24C44.48 12.9653 44.7227 11.8827 45.208 10.992C45.6987 10.096 46.3547 9.41333 47.176 8.944C48.0027 8.47467 48.9173 8.24 49.92 8.24C51.4027 8.24 52.568 8.584 53.416 9.272C54.264 9.96 54.832 10.9333 55.12 12.192L52.896 12.512C52.688 11.84 52.3467 11.304 51.872 10.904C51.4027 10.4987 50.8 10.2933 50.064 10.288C49.3333 10.2773 48.7253 10.4347 48.24 10.76C47.7547 11.0853 47.3893 11.5467 47.144 12.144C46.904 12.7413 46.784 13.44 46.784 14.24C46.784 15.04 46.904 15.7333 47.144 16.32C47.3893 16.9067 47.7547 17.3627 48.24 17.688C48.7253 18.0133 49.3333 18.1813 50.064 18.192C50.56 18.2027 51.008 18.1173 51.408 17.936C51.8133 17.7547 52.1547 17.4693 52.432 17.08C52.7093 16.6907 52.9067 16.192 53.024 15.584H51.2V13.904H55.344C55.3547 13.9733 55.3627 14.096 55.368 14.272C55.3733 14.448 55.376 14.5493 55.376 14.576C55.376 15.68 55.152 16.6587 54.704 17.512C54.256 18.3653 53.624 19.0347 52.808 19.52C51.992 20 51.0293 20.24 49.92 20.24ZM60.9954 20.24C60.11 20.24 59.3287 20.0507 58.6514 19.672C57.9794 19.288 57.4514 18.7627 57.0674 18.096C56.6887 17.424 56.4994 16.656 56.4994 15.792C56.4994 14.848 56.686 14.0267 57.0594 13.328C57.4327 12.6293 57.9474 12.088 58.6034 11.704C59.2594 11.3147 60.014 11.12 60.8674 11.12C61.774 11.12 62.5447 11.3333 63.1794 11.76C63.814 12.1867 64.2834 12.7867 64.5874 13.56C64.8914 14.3333 64.998 15.2427 64.9074 16.288H62.7554V15.488C62.7554 14.608 62.614 13.976 62.3314 13.592C62.054 13.2027 61.598 13.008 60.9634 13.008C60.222 13.008 59.6754 13.2347 59.3234 13.688C58.9767 14.136 58.8034 14.8 58.8034 15.68C58.8034 16.4853 58.9767 17.1093 59.3234 17.552C59.6754 17.9893 60.19 18.208 60.8674 18.208C61.294 18.208 61.6594 18.1147 61.9634 17.928C62.2674 17.7413 62.4994 17.472 62.6594 17.12L64.8354 17.744C64.51 18.5333 63.9954 19.1467 63.2914 19.584C62.5927 20.0213 61.8274 20.24 60.9954 20.24ZM58.1314 16.288V14.672H63.8594V16.288H58.1314ZM71.8978 20C71.3004 20.112 70.7138 20.16 70.1378 20.144C69.5671 20.1333 69.0551 20.0347 68.6018 19.848C68.1538 19.656 67.8124 19.3493 67.5778 18.928C67.3644 18.5333 67.2524 18.1333 67.2418 17.728C67.2311 17.3173 67.2258 16.8533 67.2258 16.336V8.96H69.4018V16.208C69.4018 16.544 69.4044 16.848 69.4098 17.12C69.4204 17.3867 69.4764 17.6 69.5778 17.76C69.7698 18.064 70.0764 18.2293 70.4978 18.256C70.9191 18.2827 71.3858 18.2613 71.8978 18.192V20ZM65.7538 13.04V11.36H71.8978V13.04H65.7538ZM77.1991 20.24C76.1111 20.24 75.2311 19.9947 74.5591 19.504C73.8925 19.008 73.4871 18.3093 73.3431 17.408L75.5671 17.072C75.6578 17.4773 75.8578 17.7947 76.1671 18.024C76.4818 18.2533 76.8791 18.368 77.3591 18.368C77.7538 18.368 78.0578 18.2933 78.2711 18.144C78.4845 17.9893 78.5911 17.776 78.5911 17.504C78.5911 17.3333 78.5485 17.1973 78.4631 17.096C78.3778 16.9893 78.1858 16.8853 77.8871 16.784C77.5938 16.6827 77.1351 16.5493 76.5111 16.384C75.8071 16.2027 75.2445 16 74.8231 15.776C74.4018 15.552 74.0978 15.2853 73.9111 14.976C73.7245 14.6613 73.6311 14.2827 73.6311 13.84C73.6311 13.2853 73.7725 12.8053 74.0551 12.4C74.3378 11.9893 74.7351 11.6747 75.2471 11.456C75.7645 11.232 76.3725 11.12 77.0711 11.12C77.7485 11.12 78.3485 11.224 78.8711 11.432C79.3938 11.64 79.8151 11.936 80.1351 12.32C80.4605 12.704 80.6605 13.1573 80.7351 13.68L78.5111 14.08C78.4738 13.76 78.3351 13.5067 78.0951 13.32C77.8551 13.1333 77.5298 13.024 77.1191 12.992C76.7191 12.9653 76.3965 13.0187 76.1511 13.152C75.9111 13.2853 75.7911 13.4773 75.7911 13.728C75.7911 13.8773 75.8418 14.0027 75.9431 14.104C76.0498 14.2053 76.2658 14.3093 76.5911 14.416C76.9218 14.5227 77.4231 14.6613 78.0951 14.832C78.7511 15.0027 79.2765 15.2027 79.6711 15.432C80.0711 15.656 80.3618 15.928 80.5431 16.248C80.7245 16.5627 80.8151 16.944 80.8151 17.392C80.8151 18.2773 80.4951 18.9733 79.8551 19.48C79.2151 19.9867 78.3298 20.24 77.1991 20.24ZM86.3811 20.24C85.4851 20.24 84.7171 20.04 84.0771 19.64C83.4371 19.24 82.9465 18.696 82.6051 18.008C82.2638 17.32 82.0931 16.544 82.0931 15.68C82.0931 14.8053 82.2691 14.024 82.6211 13.336C82.9785 12.648 83.4798 12.1067 84.1251 11.712C84.7705 11.3173 85.5331 11.12 86.4131 11.12C87.4318 11.12 88.2851 11.3787 88.9731 11.896C89.6665 12.408 90.1091 13.1093 90.3011 14L88.1251 14.576C87.9971 14.128 87.7731 13.7787 87.4531 13.528C87.1385 13.2773 86.7811 13.152 86.3811 13.152C85.9225 13.152 85.5465 13.264 85.2531 13.488C84.9598 13.7067 84.7438 14.008 84.6051 14.392C84.4665 14.7707 84.3971 15.2 84.3971 15.68C84.3971 16.432 84.5625 17.0427 84.8931 17.512C85.2291 17.976 85.7251 18.208 86.3811 18.208C86.8718 18.208 87.2451 18.096 87.5011 17.872C87.7571 17.648 87.9491 17.328 88.0771 16.912L90.3011 17.376C90.0558 18.2933 89.5918 19 88.9091 19.496C88.2265 19.992 87.3838 20.24 86.3811 20.24ZM94.145 20.24C93.5263 20.24 93.001 20.1227 92.569 19.888C92.1423 19.648 91.817 19.3307 91.593 18.936C91.3743 18.536 91.265 18.096 91.265 17.616C91.265 17.216 91.3263 16.8507 91.449 16.52C91.5717 16.1893 91.769 15.8987 92.041 15.648C92.3183 15.392 92.689 15.1787 93.153 15.008C93.473 14.8907 93.8543 14.7867 94.297 14.696C94.7397 14.6053 95.241 14.52 95.801 14.44C96.361 14.3547 96.977 14.2613 97.649 14.16L96.865 14.592C96.865 14.08 96.7423 13.704 96.497 13.464C96.2517 13.224 95.841 13.104 95.265 13.104C94.945 13.104 94.6117 13.1813 94.265 13.336C93.9183 13.4907 93.6757 13.7653 93.537 14.16L91.569 13.536C91.7877 12.8213 92.1983 12.24 92.801 11.792C93.4037 11.344 94.225 11.12 95.265 11.12C96.0277 11.12 96.705 11.2373 97.297 11.472C97.889 11.7067 98.337 12.112 98.641 12.688C98.8117 13.008 98.913 13.328 98.945 13.648C98.977 13.968 98.993 14.3253 98.993 14.72V20H97.089V18.224L97.361 18.592C96.9397 19.1733 96.4837 19.5947 95.993 19.856C95.5077 20.112 94.8917 20.24 94.145 20.24ZM94.609 18.528C95.009 18.528 95.345 18.4587 95.617 18.32C95.8943 18.176 96.113 18.0133 96.273 17.832C96.4383 17.6507 96.5503 17.4987 96.609 17.376C96.721 17.1413 96.785 16.8693 96.801 16.56C96.8223 16.2453 96.833 15.984 96.833 15.776L97.473 15.936C96.8277 16.0427 96.305 16.1333 95.905 16.208C95.505 16.2773 95.1823 16.3413 94.937 16.4C94.6917 16.4587 94.4757 16.5227 94.289 16.592C94.0757 16.6773 93.9023 16.7707 93.769 16.872C93.641 16.968 93.545 17.0747 93.481 17.192C93.4223 17.3093 93.393 17.44 93.393 17.584C93.393 17.7813 93.441 17.952 93.537 18.096C93.6383 18.2347 93.7797 18.3413 93.961 18.416C94.1423 18.4907 94.3583 18.528 94.609 18.528ZM111.473 20V14.896C111.473 14.3253 111.337 13.8827 111.065 13.568C110.798 13.248 110.428 13.088 109.953 13.088C109.649 13.088 109.385 13.16 109.161 13.304C108.937 13.4427 108.761 13.64 108.633 13.896C108.51 14.1467 108.449 14.4373 108.449 14.768L107.537 14.16C107.537 13.568 107.676 13.0453 107.953 12.592C108.236 12.1387 108.612 11.7867 109.081 11.536C109.556 11.28 110.081 11.152 110.657 11.152C111.644 11.152 112.388 11.4453 112.889 12.032C113.396 12.6133 113.649 13.376 113.649 14.32V20H111.473ZM101.057 20V11.36H102.977V14.224H103.249V20H101.057ZM106.273 20V14.896C106.273 14.3253 106.137 13.8827 105.865 13.568C105.598 13.248 105.228 13.088 104.753 13.088C104.3 13.088 103.934 13.2453 103.657 13.56C103.385 13.8693 103.249 14.272 103.249 14.768L102.337 14.128C102.337 13.5627 102.478 13.056 102.761 12.608C103.044 12.16 103.422 11.8053 103.897 11.544C104.377 11.2827 104.913 11.152 105.505 11.152C106.182 11.152 106.737 11.296 107.169 11.584C107.606 11.872 107.929 12.256 108.137 12.736C108.345 13.216 108.449 13.744 108.449 14.32V20H106.273Z" fill="black"/>
<path d="M47.01 34.15C46.4567 34.15 45.9867 34.0267 45.6 33.78C45.2133 33.5333 44.9167 33.195 44.71 32.765C44.5067 32.335 44.4033 31.8467 44.4 31.3C44.4033 30.7433 44.51 30.2517 44.72 29.825C44.93 29.395 45.23 29.0583 45.62 28.815C46.01 28.5717 46.4783 28.45 47.025 28.45C47.615 28.45 48.1183 28.5967 48.535 28.89C48.955 29.1833 49.2317 29.585 49.365 30.095L48.325 30.395C48.2217 30.0917 48.0517 29.8567 47.815 29.69C47.5817 29.52 47.3133 29.435 47.01 29.435C46.6667 29.435 46.385 29.5167 46.165 29.68C45.945 29.84 45.7817 30.06 45.675 30.34C45.5683 30.62 45.5133 30.94 45.51 31.3C45.5133 31.8567 45.64 32.3067 45.89 32.65C46.1433 32.9933 46.5167 33.165 47.01 33.165C47.3467 33.165 47.6183 33.0883 47.825 32.935C48.035 32.7783 48.195 32.555 48.305 32.265L49.365 32.515C49.1883 33.0417 48.8967 33.4467 48.49 33.73C48.0833 34.01 47.59 34.15 47.01 34.15ZM52.1855 33.995L52.1905 33.065L55.3255 30.255C55.5789 30.0317 55.7505 29.8183 55.8405 29.615C55.9339 29.4117 55.9805 29.2083 55.9805 29.005C55.9805 28.7483 55.9239 28.5183 55.8105 28.315C55.6972 28.1083 55.5405 27.945 55.3405 27.825C55.1405 27.705 54.9105 27.645 54.6505 27.645C54.3839 27.645 54.1455 27.7083 53.9355 27.835C53.7289 27.9583 53.5672 28.1233 53.4505 28.33C53.3339 28.5367 53.2772 28.76 53.2805 29H52.2105C52.2105 28.5333 52.3155 28.125 52.5255 27.775C52.7389 27.4217 53.0305 27.1467 53.4005 26.95C53.7705 26.75 54.1939 26.65 54.6705 26.65C55.1239 26.65 55.5305 26.7533 55.8905 26.96C56.2505 27.1633 56.5339 27.4433 56.7405 27.8C56.9505 28.1567 57.0555 28.5633 57.0555 29.02C57.0555 29.35 57.0122 29.63 56.9255 29.86C56.8389 30.09 56.7089 30.3033 56.5355 30.5C56.3622 30.6967 56.1455 30.91 55.8855 31.14L53.4655 33.3L53.3505 33H57.0555V33.995H52.1855ZM60.7647 34.15C60.2747 34.15 59.8414 34.0433 59.4647 33.83C59.088 33.6133 58.7914 33.3167 58.5747 32.94C58.3614 32.5633 58.2547 32.13 58.2547 31.64V29.16C58.2547 28.67 58.3614 28.2367 58.5747 27.86C58.7914 27.4833 59.088 27.1883 59.4647 26.975C59.8414 26.7583 60.2747 26.65 60.7647 26.65C61.2547 26.65 61.688 26.7583 62.0647 26.975C62.4414 27.1883 62.7364 27.4833 62.9497 27.86C63.1664 28.2367 63.2747 28.67 63.2747 29.16V31.64C63.2747 32.13 63.1664 32.5633 62.9497 32.94C62.7364 33.3167 62.4414 33.6133 62.0647 33.83C61.688 34.0433 61.2547 34.15 60.7647 34.15ZM60.7647 33.15C61.0314 33.15 61.273 33.0867 61.4897 32.96C61.7097 32.83 61.8847 32.6567 62.0147 32.44C62.1447 32.22 62.2097 31.975 62.2097 31.705V29.085C62.2097 28.8183 62.1447 28.5767 62.0147 28.36C61.8847 28.14 61.7097 27.9667 61.4897 27.84C61.273 27.71 61.0314 27.645 60.7647 27.645C60.498 27.645 60.2547 27.71 60.0347 27.84C59.818 27.9667 59.6447 28.14 59.5147 28.36C59.3847 28.5767 59.3197 28.8183 59.3197 29.085V31.705C59.3197 31.975 59.3847 32.22 59.5147 32.44C59.6447 32.6567 59.818 32.83 60.0347 32.96C60.2547 33.0867 60.498 33.15 60.7647 33.15ZM65.9257 34V27.95L64.5707 28.775V27.61L65.9257 26.8H66.9907V34H65.9257ZM70.9045 34.135C70.5478 34.135 70.2128 34.0683 69.8995 33.935C69.5861 33.7983 69.3145 33.605 69.0845 33.355C68.8578 33.105 68.6928 32.81 68.5895 32.47L69.5995 32.19C69.6961 32.5 69.8645 32.7383 70.1045 32.905C70.3445 33.0683 70.6111 33.1483 70.9045 33.145C71.1678 33.1417 71.3995 33.08 71.5995 32.96C71.7995 32.84 71.9561 32.6783 72.0695 32.475C72.1828 32.2683 72.2395 32.0317 72.2395 31.765C72.2395 31.365 72.1145 31.035 71.8645 30.775C71.6178 30.515 71.2945 30.385 70.8945 30.385C70.7811 30.385 70.6645 30.4017 70.5445 30.435C70.4278 30.4683 70.3178 30.5117 70.2145 30.565L69.7245 29.74L72.2645 27.495L72.3745 27.795H68.8745V26.8H73.2045V27.795L71.0945 29.825L71.0845 29.485C71.5378 29.485 71.9311 29.5867 72.2645 29.79C72.5978 29.99 72.8545 30.2633 73.0345 30.61C73.2178 30.9533 73.3095 31.3383 73.3095 31.765C73.3095 32.225 73.2011 32.6333 72.9845 32.99C72.7711 33.3467 72.4828 33.6267 72.1195 33.83C71.7595 34.0333 71.3545 34.135 70.9045 34.135ZM76.6141 34V28.6H80.4141V29.585H77.6591V34H76.6141ZM83.6075 34.15C83.0675 34.15 82.5992 34.0283 82.2025 33.785C81.8058 33.5417 81.4992 33.2067 81.2825 32.78C81.0692 32.35 80.9625 31.855 80.9625 31.295C80.9625 30.7317 81.0725 30.2367 81.2925 29.81C81.5125 29.38 81.8208 29.0467 82.2175 28.81C82.6142 28.57 83.0775 28.45 83.6075 28.45C84.1475 28.45 84.6158 28.5717 85.0125 28.815C85.4092 29.0583 85.7158 29.3933 85.9325 29.82C86.1492 30.2467 86.2575 30.7383 86.2575 31.295C86.2575 31.8583 86.1475 32.355 85.9275 32.785C85.7108 33.2117 85.4042 33.5467 85.0075 33.79C84.6108 34.03 84.1442 34.15 83.6075 34.15ZM83.6075 33.165C84.1242 33.165 84.5092 32.9917 84.7625 32.645C85.0192 32.295 85.1475 31.845 85.1475 31.295C85.1475 30.7317 85.0175 30.2817 84.7575 29.945C84.5008 29.605 84.1175 29.435 83.6075 29.435C83.2575 29.435 82.9692 29.515 82.7425 29.675C82.5158 29.8317 82.3475 30.05 82.2375 30.33C82.1275 30.6067 82.0725 30.9283 82.0725 31.295C82.0725 31.8617 82.2025 32.315 82.4625 32.655C82.7225 32.995 83.1042 33.165 83.6075 33.165ZM86.9563 35.2V33.16C87.2529 33.16 87.4646 33.0617 87.5913 32.865C87.7213 32.665 87.8246 32.3267 87.9013 31.85C87.9479 31.56 87.9863 31.2517 88.0163 30.925C88.0496 30.5983 88.0779 30.245 88.1013 29.865C88.1246 29.4817 88.1479 29.06 88.1713 28.6H92.0413V33.16H92.5713V35.2H91.5813V34H87.9513V35.2H86.9563ZM88.4513 33.16H90.9913V29.44H89.1013C89.0879 29.66 89.0729 29.8867 89.0563 30.12C89.0429 30.3533 89.0263 30.585 89.0063 30.815C88.9896 31.045 88.9696 31.265 88.9463 31.475C88.9229 31.685 88.8963 31.875 88.8663 32.045C88.8263 32.3083 88.7779 32.5283 88.7213 32.705C88.6679 32.8817 88.5779 33.0333 88.4513 33.16ZM95.0922 34.15C94.6922 34.15 94.3572 34.0767 94.0872 33.93C93.8172 33.78 93.6122 33.5833 93.4722 33.34C93.3355 33.0933 93.2672 32.8233 93.2672 32.53C93.2672 32.2567 93.3155 32.0167 93.4122 31.81C93.5089 31.6033 93.6522 31.4283 93.8422 31.285C94.0322 31.1383 94.2655 31.02 94.5422 30.93C94.7822 30.86 95.0539 30.7983 95.3572 30.745C95.6605 30.6917 95.9789 30.6417 96.3122 30.595C96.6489 30.5483 96.9822 30.5017 97.3122 30.455L96.9322 30.665C96.9389 30.2417 96.8489 29.9283 96.6622 29.725C96.4789 29.5183 96.1622 29.415 95.7122 29.415C95.4289 29.415 95.1689 29.4817 94.9322 29.615C94.6955 29.745 94.5305 29.9617 94.4372 30.265L93.4622 29.965C93.5955 29.5017 93.8489 29.1333 94.2222 28.86C94.5989 28.5867 95.0989 28.45 95.7222 28.45C96.2055 28.45 96.6255 28.5333 96.9822 28.7C97.3422 28.8633 97.6055 29.1233 97.7722 29.48C97.8589 29.6567 97.9122 29.8433 97.9322 30.04C97.9522 30.2367 97.9622 30.4483 97.9622 30.675V34H97.0372V32.765L97.2172 32.925C96.9939 33.3383 96.7089 33.6467 96.3622 33.85C96.0189 34.05 95.5955 34.15 95.0922 34.15ZM95.2772 33.295C95.5739 33.295 95.8289 33.2433 96.0422 33.14C96.2555 33.0333 96.4272 32.8983 96.5572 32.735C96.6872 32.5717 96.7722 32.4017 96.8122 32.225C96.8689 32.065 96.9005 31.885 96.9072 31.685C96.9172 31.485 96.9222 31.325 96.9222 31.205L97.2622 31.33C96.9322 31.38 96.6322 31.425 96.3622 31.465C96.0922 31.505 95.8472 31.545 95.6272 31.585C95.4105 31.6217 95.2172 31.6667 95.0472 31.72C94.9039 31.77 94.7755 31.83 94.6622 31.9C94.5522 31.97 94.4639 32.055 94.3972 32.155C94.3339 32.255 94.3022 32.3767 94.3022 32.52C94.3022 32.66 94.3372 32.79 94.4072 32.91C94.4772 33.0267 94.5839 33.12 94.7272 33.19C94.8705 33.26 95.0539 33.295 95.2772 33.295Z" fill="black" fill-opacity="0.5"/>
<defs>
<clipPath id="clip0_30_16">
<rect width="40" height="40" fill="white"/>
</clipPath>
</defs>
</svg>
