<svg width="22" height="24" viewBox="0 0 22 24" fill="none" xmlns="http://www.w3.org/2000/svg">
<path opacity="0.7" d="M19.992 5.56798L19.872 5.73598C19.944 5.25598 19.848 4.58398 19.728 4.19998C19.56 4.82398 19.248 5.37598 18.816 5.90398L18.792 5.59198C18.288 6.38398 17.664 7.03198 16.968 7.34398C16.968 7.22398 16.944 7.07998 16.896 6.98398C15.984 8.18398 13.776 7.89598 14.016 10.32C14.52 10.248 14.76 10.752 14.328 11.232C14.136 11.232 13.944 11.16 13.776 11.064L13.872 10.92L13.488 10.728C13.584 10.704 13.68 10.656 13.776 10.608C13.2 10.32 13.392 9.76798 12.72 9.47998C12.6 9.35998 12.504 9.19198 12.432 9.02398C12.408 8.90398 12.384 8.75998 12.36 8.61598C12.36 8.32798 12.36 8.15998 12.432 8.03998L12.48 8.11198C12.648 7.72798 12.864 7.43998 13.152 7.27198C13.944 7.29598 14.4 7.24798 14.544 6.76798C14.496 6.79198 14.472 6.79198 14.448 6.79198C14.424 6.74398 14.4 6.71998 14.376 6.69598C14.568 6.62398 14.856 6.74398 14.928 6.74398C14.904 6.50398 14.808 6.43198 14.76 6.33598L15.024 6.14398C15.696 6.35998 16.272 5.85598 16.68 6.07198L16.824 5.56798C16.224 5.27998 15.864 5.66398 15.36 5.66398C15.504 5.35198 15.528 5.06398 15.408 4.77598L14.88 4.60798C14.232 4.79998 14.256 5.39998 14.496 5.80798C14.352 5.95198 14.208 6.02398 14.112 6.07198L13.944 6.09598C13.944 6.09598 13.92 5.87998 13.632 5.80798V5.66398C13.992 5.37598 14.016 5.08798 13.944 4.91998C13.872 4.75198 13.68 4.65598 13.512 4.70398L13.272 4.77598L13.248 4.72798C13.272 4.70398 13.272 4.67998 13.272 4.65598C13.272 4.60798 13.248 4.55998 13.224 4.53598H13.248L13.224 4.43998L13.32 4.46398V4.12798L13.224 4.15198L13.248 4.05598H12.912L12.936 4.15198L12.84 4.12798V4.46398L12.936 4.43998L12.84 4.55998H12.888C12.864 4.58398 12.84 4.63198 12.84 4.67998C12.84 4.70398 12.84 4.75198 12.864 4.77598L12.84 4.82398L12.6 4.75198C12.432 4.70398 12.24 4.77598 12.168 4.96798C12.096 5.13598 12.12 5.39998 12.48 5.71198V5.90398C12.384 5.90398 12.288 5.90398 12.216 5.90398C11.928 5.73598 11.688 5.44798 11.616 5.08798C11.808 5.06398 11.952 4.99198 12.072 4.87198V4.36798C12.84 3.79198 13.056 3.02398 12.384 2.68798C12 2.49598 11.52 2.66398 11.28 2.85598C11.232 2.78398 11.16 2.71198 11.088 2.68798C11.088 2.61598 11.064 2.54398 10.992 2.47198H11.04L10.992 2.30398L11.16 2.35198V1.82398L10.992 1.87198L11.04 1.70398H10.512L10.56 1.87198L10.392 1.82398V2.35198L10.56 2.30398L10.512 2.47198H10.56C10.512 2.51998 10.464 2.59198 10.464 2.68798V2.71198C10.416 2.73598 10.344 2.80798 10.296 2.85598C10.056 2.66398 9.57596 2.49598 9.21596 2.68798C8.54396 3.02398 8.75996 3.79198 9.52796 4.36798V4.87198C9.64796 4.99198 9.81596 5.06398 9.98396 5.08798C9.91196 5.42398 9.67196 5.71198 9.38396 5.90398C9.31196 5.90398 9.21596 5.90398 9.11996 5.90398V5.68798C9.47996 5.39998 9.50396 5.11198 9.43196 4.94398C9.35996 4.77598 9.16796 4.67998 8.99996 4.72798L8.75996 4.79998L8.73596 4.75198C8.75996 4.72798 8.75996 4.70398 8.75996 4.67998C8.75996 4.63198 8.73596 4.58398 8.71196 4.55998H8.73596L8.71196 4.46398L8.80796 4.48798V4.15198L8.71196 4.17598L8.73596 4.07998H8.39996L8.42396 4.17598L8.32796 4.15198V4.48798L8.42396 4.46398V4.55998H8.47196C8.44796 4.58398 8.42396 4.63198 8.42396 4.67998C8.42396 4.70398 8.42396 4.75198 8.44796 4.77598L8.42396 4.82398L8.18396 4.75198C8.01596 4.70398 7.82396 4.77598 7.75196 4.96798C7.67996 5.13598 7.70396 5.39998 8.06396 5.71198V5.85598C7.77596 5.92798 7.75196 6.16798 7.75196 6.16798H7.63196C7.53596 6.11998 7.31996 5.97598 7.17596 5.83198C7.41596 5.39998 7.41596 4.87198 6.79196 4.67998L6.23996 4.79998C6.11996 5.08798 6.14396 5.35198 6.28796 5.66398C5.78396 5.66398 5.42396 5.27998 4.82396 5.56798L4.96796 6.07198C5.37596 5.85598 5.95196 6.35998 6.62396 6.14398L6.88796 6.33598C6.79196 6.45598 6.69596 6.57598 6.67196 6.79198C6.83996 6.69598 7.00796 6.67198 7.27196 6.71998C7.17596 6.71998 7.15196 6.76798 7.15196 6.79198C7.17596 6.81598 7.19996 6.81598 7.19996 6.81598C7.17596 6.81598 7.10396 6.79198 7.03196 6.79198C7.17596 7.24798 7.65596 7.29598 8.44796 7.27198C8.73596 7.41598 8.92796 7.70398 9.11996 8.11198L9.16796 8.03998C9.21596 8.18398 9.23996 8.32798 9.23996 8.61598C9.23996 8.78398 9.21596 8.90398 9.16796 9.02398C9.07196 9.19198 8.97596 9.35998 8.87996 9.47998C8.20796 9.76798 8.39996 10.32 7.82396 10.584C7.91996 10.656 7.99196 10.704 8.11196 10.704L7.72796 10.896L7.82396 11.04C7.65596 11.136 7.48796 11.208 7.27196 11.208C6.81596 10.728 7.05596 10.248 7.58396 10.296C7.82396 7.87198 5.61596 8.18398 4.70396 6.95998C4.67996 7.05598 4.65596 7.19998 4.63196 7.31998C3.93596 7.00798 3.31196 6.35998 2.80796 5.56798L2.78396 5.87998C2.37596 5.35198 2.06396 4.77598 1.87196 4.17598C1.75196 4.55998 1.65596 5.23198 1.72796 5.71198L1.60796 5.54398C1.36796 6.45598 1.39196 7.05598 1.89596 7.84798C1.96796 8.35198 2.18396 8.85598 2.42396 9.23998C2.27996 9.21598 2.18396 9.19198 2.03996 9.19198C2.30396 9.69598 2.61596 10.176 2.90396 10.488L2.49596 10.608C2.85596 11.16 3.26396 11.52 3.74396 11.832C3.52796 11.88 3.43196 11.952 3.26396 12.072C3.57596 12.408 3.83996 12.576 4.27196 12.696C3.93596 12.816 3.79196 12.96 3.69596 13.224C4.12796 13.368 4.60796 13.464 5.08796 13.44C4.79996 13.608 4.53596 13.8 4.39196 14.064L4.29596 14.016C4.24796 13.992 4.22396 13.992 4.17596 13.992C4.07996 13.992 3.95996 14.064 3.93596 14.16C3.93596 14.184 3.91196 14.208 3.91196 14.208V14.256C3.88796 14.28 3.83996 14.304 3.81596 14.328L3.69596 14.28C3.64796 14.256 3.59996 14.256 3.55196 14.256C3.43196 14.256 3.31196 14.328 3.26396 14.448C3.19196 14.616 3.26396 14.784 3.40796 14.88L3.50396 14.928H3.52796C3.52796 14.976 3.52796 15 3.52796 15.048L3.50396 15.096C3.50396 15.12 3.47996 15.12 3.47996 15.144C3.45596 15.216 3.45596 15.288 3.47996 15.36C3.50396 15.432 3.55196 15.48 3.62396 15.528L3.81596 15.624L3.76796 15.6L3.86396 15.648L4.19996 15.816L4.22396 15.84C3.98396 16.128 3.69596 16.296 3.35996 16.296C3.31196 16.296 3.26396 16.296 3.19196 16.296L3.11996 16.248H3.09596C2.95196 16.224 2.80796 16.176 2.66396 16.104L2.49596 16.008L2.54396 16.2C2.63996 16.656 3.04796 17.112 3.67196 17.52C4.27196 17.88 4.91996 18.096 5.47196 18.096C5.75996 18.096 5.99996 18.024 6.16796 17.904L6.33596 17.784L6.14396 17.736C5.99996 17.688 5.85596 17.616 5.75996 17.544L5.66396 17.52L5.59196 17.448C5.25596 17.136 5.25596 16.68 5.35196 16.344H5.37596L5.71196 16.512L5.80796 16.56L5.83196 16.512L6.52796 16.848C6.50396 17.928 6.16796 18.6 5.54396 19.296H5.51996C5.42396 19.32 5.35196 19.416 5.32796 19.512C5.30396 19.536 5.27996 19.56 5.25596 19.584C5.25596 19.584 5.25596 19.584 5.23196 19.584C5.18396 19.512 5.11196 19.464 5.01596 19.464C4.99196 19.464 4.96796 19.464 4.94396 19.488L4.82396 19.536C4.75196 19.56 4.70396 19.608 4.67996 19.656C4.65596 19.704 4.65596 19.752 4.65596 19.824C4.63196 19.824 4.58396 19.848 4.55996 19.848C4.51196 19.752 4.41596 19.68 4.31996 19.68C4.29596 19.68 4.27196 19.68 4.22396 19.704L4.15196 19.728C4.00796 19.776 3.93596 19.896 3.98396 20.04C3.67196 20.136 3.35996 20.256 3.07196 20.328C3.11996 21.072 3.35996 21.696 3.83996 22.272C4.58396 21.912 5.30396 21.552 5.99996 21.216C6.02396 21.24 6.07196 21.264 6.11996 21.264C6.14396 21.264 6.16796 21.264 6.19196 21.24L6.28796 21.216C6.40796 21.168 6.55196 21.048 6.62396 20.928C7.63196 20.448 8.56796 20.016 9.38396 19.656C9.40796 19.944 9.43196 20.208 9.52796 20.4C9.71996 20.328 9.88796 20.28 10.056 20.136C10.056 20.232 10.104 20.328 10.128 20.448L9.76796 20.832L10.008 21.072L10.368 20.736C10.416 21 10.704 21.384 10.872 21.48C10.992 21.384 11.304 20.976 11.376 20.736L11.736 21.072L11.976 20.832L11.616 20.448C11.664 20.352 11.688 20.256 11.688 20.136C11.856 20.256 12.024 20.328 12.216 20.4C12.288 20.208 12.336 19.968 12.36 19.656L12.456 19.704L12.504 19.656L14.232 20.496L14.376 20.568L14.424 20.64L14.448 20.664H14.472L14.712 20.784L14.784 20.808C14.856 20.928 15.048 21.24 15.384 21.216C15.456 21.216 15.504 21.192 15.552 21.168L15.792 21.288L15.888 21.336L15.912 21.288L16.8 21.696L16.776 21.744L16.872 21.792L17.208 21.96L17.304 22.008L17.328 21.96L17.592 22.08C17.568 22.08 17.52 22.08 17.592 22.08C17.688 22.08 17.808 22.008 17.832 21.912C17.832 21.888 17.856 21.864 17.856 21.864V21.816C17.88 21.792 17.928 21.792 17.952 21.744H17.976L18.12 21.816C18.168 21.84 18.216 21.84 18.264 21.84C18.384 21.84 18.504 21.768 18.552 21.648C18.624 21.48 18.552 21.312 18.408 21.216L18.288 21.144C18.288 21.096 18.288 21.072 18.288 21.024L18.312 21C18.336 20.976 18.336 20.976 18.336 20.952C18.36 20.88 18.36 20.808 18.336 20.736C18.312 20.664 18.24 20.664 18.192 20.64L17.904 20.496L17.928 20.448L17.832 20.4L17.496 20.232L17.4 20.184L17.424 20.136C17.472 20.016 17.376 19.872 17.304 19.848L17.184 19.8C17.064 19.752 16.92 19.8 16.872 19.92L16.848 19.968L16.752 19.92L16.776 19.848C16.824 19.728 16.776 19.584 16.632 19.512L16.512 19.464C16.44 19.44 16.344 19.464 16.296 19.488C15.576 18.72 15.192 18.072 15.144 17.232C16.272 16.8 17.544 16.344 18.888 15.912C18.744 15.216 18.48 14.568 18.12 13.968L17.784 14.16L17.496 13.608C17.352 13.704 17.208 13.776 17.04 13.872C16.896 13.728 16.704 13.584 16.512 13.488C16.992 13.512 17.496 13.416 17.904 13.272C17.784 13.032 17.64 12.864 17.328 12.744C17.76 12.624 18.048 12.456 18.336 12.12C18.168 12 18.072 11.928 17.856 11.88C18.336 11.568 18.72 11.208 19.104 10.656L18.696 10.536C18.984 10.224 19.296 9.74398 19.56 9.23998C19.416 9.23998 19.32 9.23998 19.176 9.28798C19.44 8.92798 19.632 8.39998 19.704 7.89598C20.208 7.05598 20.232 6.47998 19.992 5.56798ZM13.008 16.08C12.984 16.104 12.936 16.104 12.912 16.128L12.936 15.96L13.008 16.08ZM10.632 5.18398H10.8H10.968C11.112 5.73598 11.448 6.11998 11.928 6.43198C11.928 6.43198 11.616 6.88798 11.064 7.07998C11.112 7.15198 11.136 7.15198 11.208 7.19998C11.016 7.36798 10.8 7.77598 10.8 7.77598C10.8 7.77598 10.584 7.36798 10.392 7.19998C10.44 7.15198 10.488 7.15198 10.536 7.07998C9.98396 6.88798 9.67196 6.43198 9.67196 6.43198C10.152 6.11998 10.512 5.73598 10.632 5.18398ZM8.68796 16.104L8.59196 16.08L8.66396 15.96L8.68796 16.104ZM5.01596 14.328C5.20796 14.304 5.39996 14.28 5.56796 14.232C5.47196 14.304 5.37596 14.424 5.32796 14.52L4.99196 14.376L5.01596 14.328ZM6.86396 18.984C7.19996 18.6 7.51196 18.192 7.70396 17.424L8.59196 17.832L8.73596 17.904L8.78396 17.976L8.80796 18H8.83196L8.95196 18.072L8.11196 18.48C7.70396 18.624 7.24796 18.816 6.86396 18.984ZM14.76 19.008L13.728 18.528L13.584 18.456L13.536 18.384L13.512 18.36H13.488L12.984 18.12C13.272 18 13.608 17.88 13.944 17.736C14.136 18.216 14.4 18.648 14.76 19.008ZM16.152 14.352C16.104 14.304 16.056 14.256 16.008 14.208C16.08 14.232 16.176 14.256 16.272 14.28C16.224 14.304 16.2 14.328 16.152 14.352Z" fill="#231F20"/>
<path d="M7.77594 6.24001C7.55994 6.21601 7.31994 6.21601 7.17594 6.26401C6.98394 6.31201 6.83994 6.40801 6.76794 6.64801C7.36794 6.48001 7.41594 6.81601 7.96794 6.93601C7.79994 7.00801 7.36794 7.00801 7.12794 6.86401C7.29594 7.12801 7.51194 7.20001 8.30394 7.17601C8.03994 6.96001 8.18394 6.48001 7.77594 6.24001Z" fill="#FCD015"/>
<path d="M7.24791 6.79194C7.39191 6.81594 7.36791 6.91194 7.60791 6.91194C7.55991 6.86394 7.34391 6.69594 7.24791 6.79194Z" fill="#FCD015"/>
<path d="M13.7759 6.24001C13.9919 6.21601 14.2319 6.21601 14.3759 6.26401C14.5679 6.31201 14.7119 6.40801 14.7839 6.64801C14.1839 6.48001 14.1359 6.81601 13.5839 6.93601C13.7519 7.00801 14.1839 7.00801 14.4239 6.86401C14.2559 7.12801 14.0399 7.20001 13.2479 7.17601C13.5119 6.96001 13.3919 6.48001 13.7759 6.24001Z" fill="#FCD015"/>
<path d="M14.3279 6.79194C14.1839 6.81594 14.2079 6.91194 13.9679 6.91194C14.0159 6.86394 14.2319 6.69594 14.3279 6.79194Z" fill="#FCD015"/>
<path d="M10.7759 17.4L11.4479 18.768L10.8719 19.008L10.2239 17.616L10.7759 17.4Z" fill="#221F1F"/>
<path d="M10.1519 20.5439L9.86393 20.8319L9.95993 20.9279L10.2239 20.6639C10.2239 20.6159 10.1759 20.5679 10.1519 20.5439Z" fill="#221F1F"/>
<path d="M11.4719 20.5439C11.4479 20.5919 11.4239 20.6159 11.3759 20.6399L11.6399 20.9039L11.7359 20.8079L11.4719 20.5439Z" fill="#221F1F"/>
<path d="M8.08798 5.68798V5.83198C8.44798 5.80798 8.73598 5.85598 9.07198 5.87998V5.68798C8.75998 5.63998 8.42398 5.63998 8.08798 5.68798Z" fill="#FFC112"/>
<path d="M8.13596 4.89597L8.03996 4.82397C7.96796 4.82397 7.89596 4.87197 7.84796 4.94397C7.63196 5.20797 7.91996 5.49597 8.06396 5.61597H8.11196C8.18396 5.61597 8.27996 5.59197 8.35196 5.59197C8.35196 5.30397 8.30396 5.03997 8.13596 4.89597Z" fill="#FFC112"/>
<path d="M9.11999 4.82397L9.02399 4.89597C8.85599 5.03997 8.83199 5.30397 8.80799 5.59197C8.87999 5.59197 8.97599 5.61597 9.04799 5.61597H9.09599C9.23999 5.49597 9.52799 5.20797 9.31199 4.94397C9.26399 4.84797 9.19199 4.82397 9.11999 4.82397Z" fill="#FFC112"/>
<path d="M8.59198 4.77598C8.645 4.77598 8.68798 4.733 8.68798 4.67998C8.68798 4.62696 8.645 4.58398 8.59198 4.58398C8.53896 4.58398 8.49598 4.62696 8.49598 4.67998C8.49598 4.733 8.53896 4.77598 8.59198 4.77598Z" fill="#FFC112"/>
<path d="M8.42394 5.56797C8.47194 5.56797 8.51994 5.56797 8.59194 5.56797C8.63994 5.56797 8.68794 5.56797 8.75994 5.56797C8.75994 5.25597 8.80794 4.96797 8.99994 4.82397L8.75994 4.89597L8.71194 4.82397C8.68794 4.84797 8.63994 4.84797 8.61594 4.84797C8.56794 4.84797 8.54394 4.82397 8.51994 4.82397L8.47194 4.89597L8.23194 4.82397C8.37594 4.99197 8.42394 5.27997 8.42394 5.56797Z" fill="#FFC112"/>
<path d="M8.49596 4.48803H8.66396L8.63996 4.39203L8.75996 4.41603V4.24803L8.63996 4.27203L8.66396 4.17603H8.49596L8.54396 4.27203L8.42396 4.24803V4.41603L8.54396 4.39203L8.49596 4.48803Z" fill="#FFC112"/>
<path d="M13.32 5.664H13.296C13.104 5.64 12.912 5.64 12.696 5.664H12.672C12.624 5.664 12.576 5.664 12.528 5.688V5.88C12.84 5.88 13.128 5.808 13.488 5.832V5.688C13.416 5.664 13.368 5.664 13.32 5.664Z" fill="#FFC112"/>
<path d="M13.728 4.92005C13.68 4.84805 13.608 4.82405 13.536 4.80005L13.44 4.89605C13.272 5.04005 13.248 5.30405 13.224 5.59205C13.296 5.59205 13.392 5.61605 13.464 5.61605H13.512C13.656 5.49605 13.944 5.20805 13.728 4.92005Z" fill="#FFC112"/>
<path d="M12.552 4.89597L12.456 4.82397C12.384 4.82397 12.312 4.84797 12.24 4.94397C12.024 5.20797 12.312 5.49597 12.456 5.61597H12.504C12.576 5.61597 12.672 5.59197 12.744 5.59197C12.744 5.30397 12.72 5.03997 12.552 4.89597Z" fill="#FFC112"/>
<path d="M12.984 4.77598C13.037 4.77598 13.08 4.733 13.08 4.67998C13.08 4.62696 13.037 4.58398 12.984 4.58398C12.931 4.58398 12.888 4.62696 12.888 4.67998C12.888 4.733 12.931 4.77598 12.984 4.77598Z" fill="#FFC112"/>
<path d="M12.8399 4.92002L12.5999 4.84802C12.7919 4.99202 12.8399 5.28002 12.8399 5.59202C12.8879 5.59202 12.9359 5.59202 13.0079 5.59202C13.0559 5.59202 13.1039 5.59202 13.1759 5.59202C13.1759 5.28002 13.2239 4.99202 13.4159 4.84802L13.1759 4.92002L13.1279 4.84802C13.1039 4.87202 13.0559 4.87202 13.0319 4.87202C12.9839 4.87202 12.9599 4.84802 12.9359 4.84802L12.8399 4.92002Z" fill="#FFC112"/>
<path d="M12.912 4.48803H13.08L13.032 4.39203L13.152 4.41603V4.24803L13.032 4.27203L13.08 4.17603H12.912L12.936 4.27203L12.816 4.24803V4.41603L12.936 4.39203L12.912 4.48803Z" fill="#FFC112"/>
<path d="M9.40799 3.26404V3.40804L9.52799 3.45604V3.33604L9.40799 3.26404Z" fill="#FFC112"/>
<path d="M10.7759 4.05603C10.1279 4.05603 9.59994 4.22403 9.59994 4.41603V4.72803C9.79194 4.53603 10.2959 4.46403 10.7759 4.46403C11.2559 4.46403 11.7359 4.56003 11.9519 4.72803V4.41603C11.9519 4.22403 11.4239 4.05603 10.7759 4.05603Z" fill="#FFC112"/>
<path d="M11.376 3.40801C11.472 3.00001 11.808 2.78401 12.144 2.71201C11.784 2.64001 11.376 2.80801 11.232 3.04801C11.16 3.16801 11.112 3.31201 11.064 3.43201C11.16 3.38401 11.28 3.38401 11.376 3.40801Z" fill="#FFC112"/>
<path d="M10.176 3.40801C10.296 3.38401 10.392 3.38401 10.488 3.43201C10.44 3.28801 10.392 3.14401 10.32 3.02401C10.176 2.80801 9.76799 2.61601 9.40799 2.68801C9.74399 2.78401 10.08 3.00001 10.176 3.40801Z" fill="#FFC112"/>
<path d="M9.64799 4.82396C9.71999 4.89596 9.83999 4.96796 10.008 5.01596C10.032 4.89596 10.032 4.77596 10.056 4.63196C9.86399 4.67996 9.71999 4.75196 9.64799 4.82396Z" fill="#FFC112"/>
<path d="M10.8479 4.53601C10.8239 4.53601 10.7999 4.53601 10.7759 4.53601C10.7519 4.53601 10.7279 4.53601 10.7039 4.53601C10.7039 4.72801 10.6799 4.92001 10.6319 5.08801C10.6799 5.08801 10.7279 5.08801 10.7759 5.08801C10.8239 5.08801 10.8719 5.08801 10.9199 5.08801C10.8959 4.92001 10.8719 4.75201 10.8479 4.53601Z" fill="#FFC112"/>
<path d="M11.5199 4.63196C11.5199 4.77596 11.5439 4.89596 11.5679 5.01596C11.7359 4.96796 11.8559 4.89596 11.9279 4.82396C11.8559 4.75196 11.7119 4.67996 11.5199 4.63196Z" fill="#FFC112"/>
<path d="M10.7759 2.90405C10.8952 2.90405 10.9919 2.80734 10.9919 2.68805C10.9919 2.56875 10.8952 2.47205 10.7759 2.47205C10.6567 2.47205 10.5599 2.56875 10.5599 2.68805C10.5599 2.80734 10.6567 2.90405 10.7759 2.90405Z" fill="#FFC112"/>
<path d="M10.632 2.37597H10.896L10.824 2.15997L11.04 2.23197V1.96797L10.824 2.03997L10.896 1.82397H10.632L10.728 2.03997L10.488 1.96797V2.23197L10.728 2.15997L10.632 2.37597Z" fill="#FFC112"/>
<path d="M12.048 3.45604L12.168 3.40804V3.26404L12.072 3.33604L12.048 3.45604Z" fill="#FFC112"/>
<path d="M12.552 2.97606C12.504 2.88006 12.432 2.83206 12.336 2.78406C11.976 2.80806 11.568 3.00006 11.472 3.48006V3.52806L11.424 3.50406C11.28 3.45606 11.16 3.48006 11.04 3.55206C11.016 3.64806 10.992 3.72006 10.992 3.76806C10.968 3.86406 10.872 3.91206 10.8 3.91206C10.728 3.91206 10.632 3.84006 10.608 3.76806C10.608 3.74406 10.584 3.67206 10.56 3.57606C10.464 3.50406 10.32 3.50406 10.176 3.52806L10.128 3.55206V3.50406C10.032 3.02406 9.64796 2.83206 9.26396 2.80806C9.19196 2.85606 9.11996 2.92806 9.04796 3.00006C8.71196 3.50406 9.35996 4.10406 9.59996 4.29606C9.76796 4.08006 10.296 3.98406 10.8 3.98406C11.328 3.98406 11.856 4.10406 12 4.29606C12.216 4.08006 12.864 3.48006 12.552 2.97606ZM9.35996 3.48006L9.31196 3.45606V3.38406V3.26406V3.12006L9.45596 3.19206L9.57596 3.24006L9.62396 3.26406V3.33606V3.45606V3.60006L9.47996 3.52806L9.35996 3.48006ZM9.57596 4.05606C9.52796 4.05606 9.50396 4.03206 9.50396 3.98406C9.50396 3.93606 9.52796 3.91206 9.57596 3.91206C9.62396 3.91206 9.64796 3.93606 9.64796 3.98406C9.64796 4.00806 9.62396 4.05606 9.57596 4.05606ZM9.93596 3.91206C9.88796 3.91206 9.86396 3.88806 9.86396 3.84006C9.86396 3.79206 9.88796 3.76806 9.93596 3.76806C9.98396 3.76806 10.008 3.79206 10.008 3.84006C10.008 3.86406 9.95996 3.91206 9.93596 3.91206ZM10.296 3.81606C10.248 3.81606 10.224 3.79206 10.224 3.74406C10.224 3.69606 10.248 3.67206 10.296 3.67206C10.344 3.67206 10.368 3.69606 10.368 3.74406C10.368 3.79206 10.344 3.81606 10.296 3.81606ZM11.28 3.81606C11.232 3.81606 11.208 3.79206 11.208 3.74406C11.208 3.69606 11.232 3.67206 11.28 3.67206C11.328 3.67206 11.352 3.69606 11.352 3.74406C11.352 3.79206 11.304 3.81606 11.28 3.81606ZM11.64 3.91206C11.592 3.91206 11.568 3.88806 11.568 3.84006C11.568 3.79206 11.592 3.76806 11.64 3.76806C11.688 3.76806 11.712 3.79206 11.712 3.84006C11.712 3.86406 11.688 3.91206 11.64 3.91206ZM12 4.05606C11.952 4.05606 11.928 4.03206 11.928 3.98406C11.928 3.93606 11.952 3.91206 12 3.91206C12.048 3.91206 12.072 3.93606 12.072 3.98406C12.072 4.00806 12.048 4.05606 12 4.05606ZM11.952 3.60006V3.45606V3.33606V3.26406L12 3.24006L12.12 3.19206L12.264 3.12006V3.26406V3.38406V3.45606L12.216 3.48006L12.096 3.52806L11.952 3.60006Z" fill="#FFC112"/>
<path d="M10.776 3.81593C10.8422 3.81593 10.896 3.7622 10.896 3.69593C10.896 3.62965 10.8422 3.57593 10.776 3.57593C10.7097 3.57593 10.656 3.62965 10.656 3.69593C10.656 3.7622 10.7097 3.81593 10.776 3.81593Z" fill="#FFC112"/>
<path d="M10.632 3.52806C10.68 3.48006 10.728 3.48006 10.776 3.48006C10.824 3.48006 10.896 3.50406 10.92 3.52806C10.944 3.38406 11.016 3.16806 11.136 2.97606C11.136 2.97606 11.136 2.95206 11.16 2.95206C11.16 2.88006 11.112 2.83206 11.04 2.78406C10.992 2.88006 10.896 2.97606 10.752 2.97606C10.632 2.97606 10.512 2.90406 10.464 2.78406C10.416 2.80806 10.368 2.85606 10.368 2.92806C10.368 2.95206 10.392 2.95206 10.392 2.97606C10.536 3.19206 10.608 3.38406 10.632 3.52806Z" fill="#FFC112"/>
<path d="M17.4239 13.776C15.0479 15.048 12.9599 16.224 10.8239 17.28L10.8719 17.352V17.376C13.0319 16.44 15.3119 15.408 17.6639 14.232C17.6159 14.088 17.5199 13.896 17.4239 13.776Z" fill="#E0E0E0"/>
<path d="M10.1519 17.664L10.1279 17.616C9.64789 17.856 9.14389 18.072 8.66389 18.288C9.14389 18.096 9.64789 17.904 10.1519 17.664Z" fill="#E0E0E0"/>
<path d="M17.9999 14.184C15.7439 15.312 13.3439 16.416 10.9199 17.472L11.4719 18.624C13.8719 17.616 16.3199 16.656 18.6719 15.864C18.5759 15.264 18.3359 14.712 17.9999 14.184Z" fill="#E0E0E0"/>
<path d="M5.92788 19.44L6.04788 19.8C6.07188 19.872 5.99987 19.944 5.99987 20.04C6.02387 20.376 5.80788 20.616 5.80788 20.616L5.68788 20.712L5.63987 20.568L5.32788 19.656C5.32788 19.68 5.30387 19.68 5.27987 19.68L5.47187 20.232C5.54387 20.472 5.42387 20.808 5.39987 20.808L5.35187 20.904L5.25587 20.88C5.25587 20.88 5.01587 20.712 4.89587 20.4C4.87187 20.352 4.82387 20.352 4.79987 20.304L4.67987 19.92C4.65587 19.92 4.63188 19.944 4.58388 19.944L4.87187 20.808L4.91987 20.952H4.77587C4.75187 20.952 4.48787 20.952 4.27187 20.64C4.24787 20.592 4.12788 20.616 4.10388 20.544L3.98388 20.16C3.69588 20.256 3.43188 20.352 3.14388 20.448C3.23988 21.096 3.45588 21.672 3.83988 22.128C4.51187 21.792 5.20788 21.456 5.92788 21.12C5.92788 21.096 5.95187 21.048 5.97587 21L6.26388 20.52C6.26388 20.52 6.21587 20.376 6.23987 20.208C6.45587 20.256 6.62387 20.352 6.69587 20.496C6.71987 20.568 6.71987 20.688 6.67187 20.784C7.99187 20.16 9.35988 19.56 10.7279 18.984L10.1999 17.76C8.78387 18.36 7.34388 18.936 5.92788 19.44Z" fill="#E0E0E0"/>
<path d="M5.63994 17.616C5.39994 17.592 5.18394 17.568 4.96794 17.52L4.99194 17.424C5.15994 17.472 5.32794 17.496 5.51994 17.52C5.18394 17.208 5.13594 16.752 5.25594 16.296L4.31994 15.84C4.03194 16.248 3.64794 16.416 3.19194 16.344C3.59994 16.776 4.05594 17.112 4.60794 17.304L4.58394 17.4C3.98394 17.184 3.47994 16.824 3.04794 16.32C2.90394 16.296 2.75994 16.224 2.61594 16.152C2.85594 17.28 5.23194 18.408 6.07194 17.808C5.90394 17.76 5.75994 17.688 5.63994 17.616Z" fill="#E2E2E2"/>
<path d="M3.74397 14.4L3.62397 14.352C3.50397 14.304 3.38397 14.352 3.33597 14.448C3.28797 14.568 3.33597 14.688 3.43197 14.736L3.52797 14.784C3.57597 14.688 3.64797 14.64 3.74397 14.64C3.71997 14.568 3.71997 14.472 3.74397 14.4Z" fill="#A5A5A5"/>
<path d="M18.36 21.36L18.24 21.288C18.192 21.36 18.12 21.432 18.024 21.432C18.072 21.504 18.072 21.6 18.024 21.672L18.168 21.744C18.288 21.792 18.408 21.744 18.456 21.648C18.504 21.552 18.456 21.408 18.36 21.36Z" fill="#A5A5A5"/>
<path d="M17.4354 20.3326L16.7853 21.6976L17.132 21.8628L17.7821 20.4977L17.4354 20.3326Z" fill="#939393"/>
<path d="M6.04858 14.89L5.39842 16.255L5.7451 16.4201L6.39526 15.0551L6.04858 14.89Z" fill="#939393"/>
<path d="M4.54155 14.1912L3.89139 15.5563L4.23806 15.7214L4.88822 14.3564L4.54155 14.1912Z" fill="#939393"/>
<path d="M7.27196 15.48L8.83196 17.904L9.07196 18.024C9.14396 18 9.19196 17.976 9.26396 17.928L7.87196 15.768L7.27196 15.48Z" fill="#939393"/>
<path d="M10.08 16.824L10.44 17.376C10.536 17.328 10.656 17.28 10.752 17.232L10.68 17.112L10.08 16.824Z" fill="#939393"/>
<path d="M11.52 18.696L11.568 18.792L11.472 18.8399L11.4 18.8639L11.616 19.2239L12.192 19.512L11.64 18.6479C11.616 18.6719 11.568 18.696 11.52 18.696Z" fill="#939393"/>
<path d="M12.864 18.144L14.424 20.568L14.664 20.688C14.592 20.496 14.664 20.352 14.688 20.328L13.464 18.432L12.864 18.144Z" fill="#939393"/>
<path d="M16.152 19.7039L16.056 19.6799L15.624 20.6639L15.576 20.6159L15.384 21.0239L15.72 21.1919L15.912 20.7839C15.888 20.6879 15.816 20.4479 15.912 20.2559L16.152 19.7039Z" fill="#939393"/>
<path d="M5.92784 16.248L5.83184 16.416L8.61584 17.736L8.39984 17.424L5.92784 16.248Z" fill="#DBDBDB"/>
<path d="M7.94385 16.704L6.11985 15.816L5.95185 16.152L8.30385 17.28L7.94385 16.704Z" fill="#DBDBDB"/>
<path d="M7.46382 15.9601L6.31182 15.4081L6.16782 15.7441L7.84782 16.5361L7.46382 15.9601Z" fill="#DBDBDB"/>
<path d="M7.19984 15.528L7.17584 15.504L6.43184 15.144L6.35984 15.312L7.36784 15.792L7.19984 15.528Z" fill="#DBDBDB"/>
<path d="M3.55185 15.0961L3.52785 15.1201C3.47985 15.2161 3.52785 15.3121 3.62385 15.3601L3.81585 15.4561L3.88785 15.2881L3.64785 15.1681C3.62385 15.1441 3.59985 15.1201 3.55185 15.0961Z" fill="#DBDBDB"/>
<path d="M4.43152 15.5337L4.34896 15.707L5.32399 16.1714L5.40655 15.9981L4.43152 15.5337Z" fill="#DBDBDB"/>
<path d="M3.62382 14.8321C3.57582 14.9281 3.62382 15.0241 3.71982 15.0721L3.95982 15.1921L4.10382 14.8561L3.86382 14.7361C3.76782 14.7121 3.64782 14.7361 3.62382 14.8321Z" fill="#DBDBDB"/>
<path d="M4.6254 15.1257L4.4706 15.4507L5.44562 15.9151L5.60042 15.5901L4.6254 15.1257Z" fill="#DBDBDB"/>
<path d="M3.83986 14.4241C3.79186 14.5201 3.83986 14.6161 3.93586 14.6641L4.15186 14.7601L4.29586 14.4241L4.07986 14.3521C3.98386 14.3041 3.88786 14.3281 3.83986 14.4241Z" fill="#DBDBDB"/>
<path d="M4.82116 14.6861L4.66636 15.0111L5.64138 15.4755L5.79618 15.1505L4.82116 14.6861Z" fill="#DBDBDB"/>
<path d="M4.00786 14.232C4.05586 14.232 4.07986 14.232 4.12786 14.256L4.34386 14.352L4.41586 14.184L4.22386 14.088C4.12786 14.04 4.03186 14.088 3.98386 14.184C4.00786 14.208 4.00786 14.208 4.00786 14.232Z" fill="#DBDBDB"/>
<path d="M4.9428 14.4297L4.86024 14.603L5.83527 15.0674L5.91783 14.8941L4.9428 14.4297Z" fill="#DBDBDB"/>
<path d="M12.1198 19.2001L12.2878 19.4641L12.3118 19.4881L14.2078 20.4001L14.0158 20.0881L12.1198 19.2001Z" fill="#DBDBDB"/>
<path d="M15.9192 21L15.8366 21.1733L16.725 21.5965L16.8075 21.4231L15.9192 21Z" fill="#DBDBDB"/>
<path d="M10.1758 17.136L9.98383 16.872L9.95983 16.824L8.08783 15.936L8.27983 16.248L10.1758 17.136Z" fill="#DBDBDB"/>
<path d="M18.1198 20.712L17.8318 20.568L17.7598 20.736L18.0958 20.904C18.1438 20.928 18.1678 20.952 18.1918 20.976L18.2158 20.952C18.2638 20.856 18.2158 20.76 18.1198 20.712Z" fill="#DBDBDB"/>
<path d="M17.6398 21.8161L17.3278 21.6721L17.2318 21.8401L17.4958 21.9601C17.5918 22.0081 17.6878 21.9601 17.7358 21.8641C17.7358 21.8401 17.7358 21.8401 17.7598 21.8161C17.7118 21.8401 17.6638 21.8401 17.6398 21.8161Z" fill="#DBDBDB"/>
<path d="M17.8319 21.408L17.5199 21.264L17.3759 21.6L17.6879 21.744C17.7839 21.792 17.8799 21.744 17.9279 21.648C17.9519 21.552 17.9279 21.456 17.8319 21.408Z" fill="#DBDBDB"/>
<path d="M18.0478 21L17.7118 20.832L17.5678 21.168L17.9038 21.336C17.9998 21.384 18.0958 21.336 18.1438 21.24C18.1918 21.144 18.1438 21.048 18.0478 21Z" fill="#DBDBDB"/>
<path d="M9.23983 17.7121L9.47983 17.8321C9.62383 17.7601 9.76783 17.7121 9.91183 17.6401L8.87983 17.1361L9.23983 17.7121Z" fill="#DBDBDB"/>
<path d="M8.37587 16.3921L8.73587 16.9681L10.0079 17.5681C10.1279 17.5201 10.2239 17.4721 10.3439 17.4001L10.2719 17.2801L8.37587 16.3921Z" fill="#DBDBDB"/>
<path d="M11.2078 18.9601L11.3998 19.0561L11.3038 18.9121L11.2078 18.9601Z" fill="#DBDBDB"/>
<path d="M12.7918 18.192C12.7198 18.216 12.6478 18.24 12.5518 18.264L12.9598 18.456L12.7918 18.192Z" fill="#DBDBDB"/>
<path d="M13.0559 18.6241L12.4319 18.3361C12.2879 18.4081 12.1439 18.4561 11.9759 18.5281L13.4159 19.2241L13.0559 18.6241Z" fill="#DBDBDB"/>
<path d="M13.5359 19.368L11.8559 18.576C11.8079 18.6 11.7839 18.6 11.7359 18.624L11.9999 19.056L13.8719 19.944L13.5359 19.368Z" fill="#DBDBDB"/>
<path d="M15.4078 19.6321L15.5038 19.4641L13.6798 18.6001L13.8718 18.9121L15.4078 19.6321Z" fill="#DBDBDB"/>
<path d="M15.3838 19.752L13.9918 19.056L14.3518 19.632L15.3838 20.112C15.3838 20.04 15.4078 19.968 15.4078 19.92C15.3838 19.848 15.3358 19.824 15.3838 19.752Z" fill="#DBDBDB"/>
<path d="M14.4478 19.8L14.7358 20.256C14.9038 20.112 15.1438 20.136 15.1438 20.136L15.0718 20.376L15.1438 20.52L15.4558 20.664L15.5278 20.544C15.4798 20.472 15.4318 20.376 15.4078 20.232L14.4478 19.8Z" fill="#DBDBDB"/>
<path d="M15.3359 20.9041L15.4079 20.7601L15.2159 20.6641L15.3359 20.9041Z" fill="#DBDBDB"/>
<path d="M16.7759 20.0641L16.6799 20.0161L16.5839 20.2081L16.7039 20.2561L16.7759 20.0641Z" fill="#DBDBDB"/>
<path d="M16.6559 20.328L16.5599 20.28L16.5119 20.376C16.4879 20.424 16.4399 20.376 16.3439 20.568L16.4879 20.64L16.6559 20.328Z" fill="#DBDBDB"/>
<path d="M17.0399 20.9041L17.1839 20.6161C17.1599 20.6401 17.0879 20.6161 17.0639 20.6641C17.0159 20.7361 16.9199 20.8321 16.8959 20.8321L17.0399 20.9041Z" fill="#DBDBDB"/>
<path d="M16.5358 20.9521H16.3918L16.4398 20.8081L16.4638 20.7601L16.3198 20.6641C16.1998 20.8081 16.0078 20.9281 16.0078 20.9281L16.8718 21.3361L17.0158 21.0001L16.7998 20.9041C16.6558 20.9281 16.5598 20.9521 16.5358 20.9521Z" fill="#DBDBDB"/>
<path d="M10.8239 19.392C10.4399 19.392 10.1279 19.704 10.1279 20.088C10.1279 20.472 10.4399 20.784 10.8239 20.784C11.2079 20.784 11.5199 20.472 11.5199 20.088C11.5199 19.704 11.2079 19.392 10.8239 19.392ZM10.9919 19.824C11.0399 19.824 11.0399 19.776 11.0159 19.752C11.0399 19.704 11.0639 19.752 11.0639 19.776C11.0639 19.776 11.1119 19.776 11.1119 19.8C11.1119 19.824 11.0879 19.824 11.0879 19.872C11.0879 19.872 11.0399 19.848 11.0639 19.872C11.0639 19.872 11.0399 19.872 11.0399 19.848C11.0399 19.824 11.0639 19.824 11.0639 19.8C11.0639 19.776 11.0159 19.776 11.0159 19.776C11.0399 19.8 11.0399 19.848 10.9919 19.824ZM10.9199 20.064H10.7519C10.7999 20.016 10.7519 19.896 10.6559 19.896C10.6319 19.896 10.6319 19.92 10.6319 19.92V19.896C10.6319 19.848 10.7519 19.872 10.7999 19.848C10.7999 19.872 10.7759 19.896 10.7759 19.896C10.7999 19.92 10.8239 19.968 10.8479 20.04C10.8479 19.968 10.8719 19.92 10.9199 19.896C10.8959 19.896 10.8719 19.872 10.8959 19.848C10.9439 19.872 11.0639 19.848 11.0639 19.896V19.92C11.0639 19.92 11.0639 19.896 11.0399 19.896C10.9199 19.896 10.8479 20.016 10.9199 20.064ZM10.9919 19.944C10.9679 19.944 10.9679 19.944 10.9439 19.944L10.9679 19.92C10.9679 19.92 10.9919 19.92 10.9919 19.944ZM10.8479 20.232C10.8479 20.232 10.8719 20.208 10.8719 20.232C10.8719 20.256 10.8479 20.256 10.8479 20.256L10.7999 20.112H10.8239C10.8239 20.112 10.8479 20.088 10.8719 20.112C10.8719 20.112 10.8719 20.112 10.8719 20.136V20.16C10.8959 20.16 10.8959 20.16 10.8959 20.184C10.8959 20.16 10.8719 20.16 10.8719 20.16C10.8479 20.208 10.8479 20.208 10.8479 20.232ZM10.7759 20.184C10.7519 20.16 10.7519 20.16 10.7519 20.16C10.7519 20.16 10.7759 20.16 10.7759 20.184C10.7759 20.16 10.7999 20.16 10.7999 20.16C10.7759 20.16 10.7519 20.16 10.7519 20.136L10.7759 20.112V20.088L10.8479 20.28C10.8239 20.28 10.7999 20.28 10.7759 20.28C10.7759 20.28 10.7519 20.28 10.7519 20.256C10.7519 20.256 10.7519 20.256 10.7519 20.232C10.7519 20.232 10.7759 20.208 10.7759 20.184ZM10.7039 19.944C10.7039 19.944 10.6799 19.944 10.6559 19.944C10.6559 19.92 10.6559 19.92 10.6799 19.92C10.6799 19.92 10.7039 19.92 10.7039 19.944ZM10.8239 19.656L10.8479 19.68L10.8239 19.704L10.7999 19.68L10.8239 19.656ZM10.6799 19.776H10.7279C10.7519 19.776 10.7519 19.776 10.7519 19.8C10.7759 19.8 10.7999 19.776 10.7999 19.752L10.7759 19.728C10.7519 19.704 10.7759 19.68 10.7999 19.68L10.8239 19.728L10.8479 19.68C10.8719 19.68 10.8959 19.704 10.8719 19.728L10.8479 19.752C10.8479 19.776 10.8719 19.8 10.8959 19.8C10.8959 19.776 10.8959 19.776 10.9199 19.776L10.9439 19.8L10.9679 19.776C10.9919 19.776 10.9919 19.776 10.9919 19.8L10.9679 19.824H10.9199C10.8719 19.824 10.8479 19.8 10.8479 19.776H10.7999C10.7999 19.8 10.7759 19.824 10.7279 19.824H10.6799C10.6799 19.824 10.6799 19.8 10.6559 19.8C10.6319 19.8 10.6559 19.776 10.6799 19.776ZM10.5599 19.776C10.5839 19.752 10.6079 19.704 10.6079 19.752C10.5839 19.776 10.5839 19.824 10.6319 19.824C10.5839 19.824 10.5839 19.8 10.5839 19.776C10.5839 19.776 10.5359 19.776 10.5359 19.8C10.5359 19.824 10.5599 19.824 10.5599 19.848C10.5599 19.848 10.5599 19.872 10.5359 19.872C10.5359 19.848 10.5119 19.848 10.5119 19.872C10.5359 19.824 10.4879 19.824 10.4879 19.8C10.5119 19.776 10.5599 19.8 10.5599 19.776ZM10.3919 20.016C10.4159 20.016 10.4399 20.016 10.4159 19.992C10.3919 19.968 10.3679 19.92 10.3919 19.896C10.3919 19.896 10.4639 19.92 10.4399 19.896C10.4159 19.848 10.4159 19.8 10.4399 19.776C10.4399 19.8 10.5359 19.92 10.6319 19.992C10.6319 19.992 10.6079 20.016 10.6079 20.04C10.6079 20.064 10.6319 20.088 10.6559 20.088C10.6799 20.088 10.6799 20.088 10.7039 20.088V20.16C10.7039 20.136 10.6559 20.112 10.6319 20.112C10.6319 20.136 10.6079 20.16 10.6079 20.184C10.5839 20.208 10.5599 20.208 10.5359 20.184C10.5359 20.184 10.5599 20.136 10.5359 20.16C10.5119 20.184 10.4879 20.16 10.4639 20.136C10.4879 20.136 10.4879 20.112 10.4639 20.112C10.4399 20.112 10.3919 20.112 10.3919 20.064C10.3919 20.064 10.4399 20.04 10.4159 20.04C10.4159 20.088 10.3919 20.064 10.3919 20.016ZM11.0639 20.4C11.0399 20.4 11.0159 20.4 11.0159 20.376C10.9919 20.352 10.9679 20.352 10.9199 20.352C10.9439 20.328 10.8959 20.304 10.8719 20.328C10.8479 20.328 10.8479 20.352 10.8479 20.376C10.8959 20.376 10.9679 20.424 10.9679 20.448C10.9679 20.472 10.9679 20.472 10.9439 20.472C10.9439 20.424 10.9199 20.424 10.9199 20.472C10.9199 20.496 10.8959 20.496 10.8959 20.52C10.8959 20.472 10.8719 20.472 10.8719 20.52C10.8719 20.544 10.8479 20.544 10.8479 20.544L10.8239 20.52C10.8239 20.472 10.7999 20.472 10.7999 20.52C10.7759 20.52 10.7759 20.496 10.7759 20.472C10.7759 20.424 10.7519 20.424 10.7519 20.472C10.7279 20.472 10.7279 20.448 10.7279 20.448C10.7519 20.424 10.7999 20.376 10.8479 20.376C10.8479 20.352 10.8239 20.328 10.8239 20.328C10.7999 20.304 10.7759 20.328 10.7759 20.352C10.7519 20.352 10.7039 20.352 10.7039 20.376H10.6799C10.6559 20.376 10.6559 20.352 10.6559 20.352V20.328L10.5599 20.256H10.5359C10.5359 20.256 10.4879 20.256 10.4879 20.232H10.5119C10.5119 20.232 10.4879 20.208 10.5119 20.208C10.5359 20.208 10.5599 20.208 10.5599 20.208V20.184C10.5839 20.184 10.5839 20.232 10.5839 20.232C10.5839 20.232 10.6079 20.232 10.5839 20.256L10.6799 20.352H10.7039C10.7279 20.352 10.7759 20.352 10.7759 20.328C10.7279 20.256 10.7759 20.208 10.7999 20.208V20.256C10.7999 20.28 10.8239 20.28 10.8239 20.28H10.8479C10.8719 20.28 10.8959 20.304 10.8959 20.304C10.8959 20.304 10.9199 20.28 10.9439 20.28H10.9679C10.9919 20.28 10.9919 20.256 10.9919 20.256V20.208C11.0399 20.208 11.0879 20.256 11.0159 20.328L11.0639 20.352C11.0639 20.328 11.0639 20.328 11.0879 20.328L11.1119 20.352L11.1359 20.328C11.1599 20.328 11.1599 20.352 11.1599 20.376C11.1119 20.376 11.0879 20.4 11.0639 20.4ZM11.2559 20.016C11.2559 20.04 11.2319 20.088 11.2079 20.088C11.1599 20.088 11.2079 20.112 11.2319 20.112C11.2319 20.136 11.2079 20.16 11.1599 20.16C11.1359 20.16 11.1359 20.184 11.1599 20.184C11.1359 20.208 11.1119 20.208 11.0879 20.208C11.0639 20.208 11.0879 20.232 11.0879 20.232C11.0639 20.256 11.0399 20.256 11.0159 20.232C10.9919 20.208 10.9919 20.184 10.9919 20.16C10.9679 20.16 10.9439 20.16 10.9199 20.208V20.136C10.9439 20.136 10.9679 20.136 10.9679 20.136C10.9919 20.136 11.0159 20.112 11.0159 20.088C11.0159 20.064 11.0159 20.064 10.9919 20.04C11.0879 19.992 11.1599 19.848 11.1839 19.824C11.2079 19.848 11.2079 19.896 11.1839 19.944C11.1599 19.968 11.2319 19.944 11.2319 19.944C11.2559 19.968 11.2319 20.016 11.2079 20.04C11.1839 20.016 11.2319 20.016 11.2559 20.016Z" fill="#D0D2D3"/>
<path d="M6.67197 4.75195C6.47997 4.79995 6.40797 4.82395 6.28797 4.87195C6.07197 5.39995 6.47997 5.99995 6.95997 6.28795C7.05597 6.23995 7.24797 6.14395 7.46397 6.16795C6.91197 5.83195 6.45597 5.35195 6.67197 4.75195Z" fill="#1FC150"/>
<path d="M14.904 4.75195C15.096 4.79995 15.168 4.82395 15.288 4.87195C15.48 5.39995 15.096 5.99995 14.616 6.28795C14.52 6.23995 14.328 6.14395 14.112 6.16795C14.688 5.83195 15.12 5.35195 14.904 4.75195Z" fill="#1FC150"/>
<path d="M6.288 5.78406C5.88 5.78406 5.328 5.37606 4.896 5.64006L4.992 5.97606C5.448 5.78406 5.856 6.26406 6.528 6.09606C6.432 5.97606 6.36 5.88006 6.288 5.78406Z" fill="#1FC150"/>
<path d="M6.81599 5.49595C6.86399 5.59195 6.95999 5.68795 7.05599 5.75995C7.29599 5.44795 7.22399 4.82395 6.76799 4.75195V4.77595C6.71999 4.87195 6.71999 4.96795 6.69599 5.03995C6.83999 5.15995 6.86399 5.32795 6.81599 5.49595Z" fill="#1FC150"/>
<path d="M15.288 5.78403C15.216 5.88003 15.144 6.00002 15.048 6.07202C15.72 6.24002 16.128 5.76002 16.584 5.95202L16.68 5.61603C16.248 5.37603 15.696 5.78403 15.288 5.78403Z" fill="#1FC150"/>
<path d="M14.76 5.49595C14.712 5.35195 14.736 5.15995 14.88 5.03995C14.88 4.96795 14.856 4.87195 14.808 4.77595V4.75195C14.352 4.82395 14.304 5.44795 14.52 5.75995C14.616 5.66395 14.712 5.59195 14.76 5.49595Z" fill="#1FC150"/>
<path d="M9.57598 6.36001C10.2 6.02401 10.584 5.44801 10.608 4.53601C10.44 4.53601 10.272 4.56001 10.128 4.58401C10.128 5.18401 9.93598 5.59201 9.57598 5.85601C9.67198 5.83201 9.74398 5.80801 9.81598 5.78401L10.056 5.66401L9.93598 5.90401C9.83998 6.14401 9.71998 6.28801 9.57598 6.36001Z" fill="#1FC150"/>
<path d="M11.976 6.35994C11.856 6.28794 11.712 6.14394 11.616 5.92794L11.496 5.68794L11.736 5.80794C11.808 5.83194 11.88 5.85594 11.976 5.87994C11.616 5.61594 11.424 5.20794 11.424 4.60794C11.28 4.58394 11.136 4.55994 10.944 4.55994C10.992 5.44794 11.376 6.04794 11.976 6.35994Z" fill="#1FC150"/>
<path d="M12.576 10.752L12.48 10.68V10.416H12.24L12.168 10.296C11.904 9.79198 11.4 9.47998 10.848 9.47998H10.728C10.176 9.47998 9.64799 9.79198 9.40799 10.296L9.33599 10.416H9.11999V10.68L9.02399 10.752C8.35199 11.256 7.96799 12.024 7.96799 12.84C7.96799 13.656 8.35199 14.424 9.02399 14.928L9.11999 15V15.264H9.33599L9.40799 15.384C9.67199 15.888 10.176 16.2 10.728 16.2H10.848C11.4 16.2 11.928 15.888 12.168 15.384L12.24 15.264H12.48V15L12.576 14.928C13.248 14.424 13.632 13.656 13.632 12.84C13.632 12.024 13.248 11.28 12.576 10.752ZM11.736 15.12H9.81599V14.712H9.95999V14.496H10.056V14.304H10.224V13.008H9.98399V12.336H10.224V12.216H10.128V12.048H10.032V11.688H10.128V11.52H10.248V11.4C10.08 11.232 9.91199 10.92 10.08 10.704C10.248 10.488 10.584 10.632 10.584 10.632C10.584 10.608 10.584 10.536 10.584 10.512H10.56L10.584 10.464L10.536 10.488V10.104L10.584 10.128L10.56 10.08H10.944L10.92 10.128L10.968 10.104V10.488L10.92 10.464L10.944 10.512H10.92C10.92 10.536 10.92 10.608 10.92 10.632C10.92 10.632 11.28 10.488 11.424 10.704C11.592 10.944 11.424 11.232 11.28 11.4V11.52H11.4V11.688H11.52V12.048H11.424V12.216H11.328V12.336H11.568V13.008H11.328V14.304H11.496V14.496H11.592V14.712H11.736V15.12Z" fill="#1FC150"/>
<path d="M10.3199 11.28H10.5599C10.5599 11.064 10.5119 10.8 10.3919 10.68L10.3199 10.608C10.2479 10.608 10.1999 10.632 10.1519 10.704C10.0079 10.92 10.1999 11.184 10.3199 11.28Z" fill="#FFD400"/>
<path d="M11.3279 11.568H10.2239V11.664H11.3279V11.568Z" fill="#FFD400"/>
<path d="M11.3998 11.736H10.1278V11.904H11.3998V11.736Z" fill="#FFD400"/>
<path d="M11.2319 12.168H10.3439V12.336H11.2319V12.168Z" fill="#FFD400"/>
<path d="M11.2079 11.3521H10.3439V11.4961H11.2079V11.3521Z" fill="#FFD400"/>
<path d="M11.2078 11.28C11.3278 11.16 11.5198 10.92 11.3758 10.728C11.3278 10.656 11.2798 10.632 11.2078 10.632L11.1358 10.704C11.0158 10.8 10.9678 11.088 10.9678 11.304H11.2078V11.28Z" fill="#FFD400"/>
<path d="M10.7038 10.368H10.8478L10.8238 10.272L10.8958 10.296V10.176L10.8238 10.2L10.8478 10.104H10.7038L10.7278 10.2L10.6318 10.176V10.296L10.7278 10.272L10.7038 10.368Z" fill="#FFD400"/>
<path d="M10.7758 10.608C10.8289 10.608 10.8718 10.565 10.8718 10.512C10.8718 10.459 10.8289 10.416 10.7758 10.416C10.7228 10.416 10.6798 10.459 10.6798 10.512C10.6798 10.565 10.7228 10.608 10.7758 10.608Z" fill="#FFD400"/>
<path d="M10.6319 11.28H10.8959C10.8959 11.04 10.9439 10.752 11.0879 10.632L10.8959 10.704L10.8719 10.632C10.8479 10.656 10.8239 10.656 10.7759 10.656C10.7519 10.656 10.7039 10.656 10.6799 10.632L10.6559 10.704L10.4639 10.632C10.6079 10.752 10.6319 11.04 10.6319 11.28Z" fill="#FFD400"/>
<path d="M11.3279 12H10.2239V12.096H11.3279V12Z" fill="#FFD400"/>
<path d="M11.3759 14.4H10.1519V14.52H11.3759V14.4Z" fill="#FFD400"/>
<path d="M11.4959 14.568H10.0559V14.712H11.4959V14.568Z" fill="#FFD400"/>
<path d="M11.6399 14.7841H9.91185V15.0001H11.6399V14.7841Z" fill="#FFD400"/>
<path d="M11.2319 14.328V12.96H10.3439V14.304H11.2319V14.328ZM11.0159 13.104H11.0879V14.136H11.0159V13.104ZM10.7519 13.104H10.8239V14.136H10.7519V13.104ZM10.4879 13.104H10.5599V14.136H10.4879V13.104Z" fill="#FFD400"/>
<path d="M10.5119 12.6719H10.5359V12.6239L10.5119 12.6719Z" fill="#FFD400"/>
<path d="M10.0798 12.408V12.888H11.4478V12.408H10.0798ZM10.3438 12.768C10.3198 12.768 10.2958 12.768 10.2718 12.744V12.696C10.2718 12.696 10.2718 12.696 10.2958 12.696L10.3198 12.72H10.3438C10.3678 12.72 10.3918 12.72 10.3918 12.696C10.3918 12.672 10.3918 12.672 10.3438 12.672H10.3198C10.3438 12.672 10.3438 12.672 10.3438 12.648C10.3438 12.624 10.3198 12.624 10.3198 12.624H10.2958V12.648H10.2718V12.6C10.2958 12.6 10.3198 12.576 10.3438 12.576C10.3918 12.576 10.4158 12.6 10.4158 12.624C10.4158 12.648 10.4158 12.672 10.3918 12.672C10.4158 12.672 10.4158 12.696 10.4158 12.72C10.4158 12.744 10.3678 12.768 10.3438 12.768ZM10.6558 12.744H10.5598C10.5598 12.744 10.5598 12.744 10.5598 12.72H10.5838L10.5598 12.696H10.4878V12.72H10.5118C10.5118 12.72 10.5118 12.72 10.5118 12.744H10.4398C10.4398 12.744 10.4398 12.744 10.4398 12.72H10.4638L10.5358 12.552H10.5598L10.6558 12.744ZM10.8718 12.768H10.7998L10.7278 12.672V12.72H10.7518C10.7518 12.72 10.7518 12.72 10.7518 12.744H10.6558C10.6558 12.744 10.6558 12.744 10.6558 12.72H10.6798V12.576H10.6558C10.6558 12.576 10.6558 12.576 10.6558 12.552H10.7518C10.7518 12.552 10.7518 12.552 10.7518 12.576H10.7278V12.648L10.7758 12.576C10.7758 12.576 10.7758 12.576 10.7758 12.552H10.8478C10.8478 12.552 10.8478 12.552 10.8478 12.576H10.8238L10.7758 12.624L10.8478 12.72L10.8718 12.768C10.8718 12.744 10.8718 12.744 10.8718 12.768ZM10.9678 12.768C10.8958 12.768 10.8718 12.72 10.8718 12.672C10.8718 12.6 10.8958 12.576 10.9678 12.576C11.0398 12.576 11.0638 12.624 11.0638 12.672C11.0638 12.72 11.0158 12.768 10.9678 12.768ZM11.2798 12.768H11.1838C11.1838 12.768 11.1838 12.768 11.1838 12.744H11.2078V12.672H11.1358V12.72H11.1598C11.1598 12.72 11.1598 12.72 11.1598 12.744H11.0638C11.0638 12.744 11.0638 12.744 11.0638 12.72H11.0878V12.576H11.0638C11.0638 12.576 11.0638 12.576 11.0638 12.552H11.1598C11.1598 12.552 11.1598 12.552 11.1598 12.576H11.1358V12.624H11.2078V12.576H11.1838C11.1838 12.576 11.1838 12.576 11.1838 12.552H11.2798C11.2798 12.552 11.2798 12.552 11.2798 12.576H11.2558V12.72L11.2798 12.768C11.2798 12.744 11.2798 12.744 11.2798 12.768Z" fill="#FFD400"/>
<path d="M10.9679 12.5759C10.9439 12.5759 10.9199 12.5999 10.9199 12.6479C10.9199 12.6959 10.9439 12.7199 10.9679 12.7199C10.9919 12.7199 11.0159 12.6719 11.0159 12.6479C10.9919 12.6239 10.9919 12.5759 10.9679 12.5759Z" fill="#FFD400"/>
<path d="M16.1759 19.608C16.1999 19.608 16.1999 19.608 16.1759 19.608C16.1519 19.536 16.1279 19.512 16.0799 19.464C16.0799 19.488 16.1039 19.536 16.0799 19.56L16.1759 19.608Z" fill="#FFE000"/>
<path d="M9.45592 19.608C9.45592 19.824 9.47992 20.04 9.52792 20.256C9.69592 20.184 9.86392 20.112 10.0079 19.992C10.0319 19.752 10.1759 19.536 10.3919 19.416C10.4159 19.344 10.4399 19.248 10.4639 19.176L9.45592 19.608Z" fill="#FFE000"/>
<path d="M10.7519 19.032L10.5839 19.104C10.5599 19.176 10.5359 19.272 10.5119 19.344C10.6079 19.32 10.7039 19.296 10.7999 19.296C10.8959 19.296 10.9919 19.32 11.0879 19.344C11.0639 19.248 11.0399 19.152 11.0159 19.056L10.7999 19.152L10.7519 19.032Z" fill="#FFE000"/>
<path d="M11.2319 19.392C11.4479 19.512 11.5919 19.728 11.6159 19.968C11.7599 20.088 11.9279 20.184 12.0959 20.232C12.1439 19.992 12.1919 19.776 12.1679 19.584L11.1359 19.08C11.1599 19.2 11.1839 19.296 11.2319 19.392Z" fill="#FFE000"/>
<path d="M10.4639 20.808C10.5359 20.976 10.6559 21.216 10.7999 21.336C10.9439 21.216 11.0879 20.976 11.1599 20.808C11.0399 20.928 10.6079 20.928 10.4639 20.808Z" fill="#FFE000"/>
<path d="M6.31192 20.304L6.40792 20.76L6.28792 20.592L6.04792 21C5.97592 21.096 6.02392 21.168 6.11992 21.12L6.21592 21.096C6.31192 21.072 6.45592 20.952 6.50392 20.832L6.55192 20.76C6.76792 20.4 6.31192 20.304 6.31192 20.304Z" fill="#FFE000"/>
<path d="M4.43997 20.472L4.65597 20.448L4.46397 19.872C4.43997 19.776 4.34397 19.728 4.24797 19.752L4.17597 19.776C4.07997 19.8 4.03197 19.896 4.05597 19.992L4.17597 20.376C4.19997 20.424 4.31997 20.4 4.34397 20.472C4.51197 20.784 4.77597 20.784 4.77597 20.784L4.70397 20.544L4.43997 20.472Z" fill="#FFE000"/>
<path d="M5.95191 19.776L5.85591 19.464C5.83191 19.368 5.73591 19.32 5.63991 19.344L5.56791 19.368C5.47191 19.392 5.42391 19.488 5.44791 19.584L5.61591 20.112L5.85591 19.896L5.66391 20.232L5.68791 20.28L5.75991 20.52C5.75991 20.52 5.97591 20.232 5.92791 19.992C5.87991 19.92 5.97591 19.872 5.95191 19.776Z" fill="#FFE000"/>
<path d="M5.15995 19.656C5.13595 19.584 5.03995 19.536 4.96795 19.56L4.84795 19.608C4.77595 19.632 4.72795 19.728 4.75195 19.8L4.89595 20.232L5.23195 20.4H5.01595C5.06395 20.616 5.18395 20.712 5.32795 20.808C5.32795 20.808 5.44795 20.52 5.37595 20.304L5.15995 19.656Z" fill="#FFE000"/>
<path d="M15.2399 19.224L15.5279 19.368C15.5759 19.296 15.6959 19.2 15.8639 19.248L15.9359 19.272C15.9359 19.272 15.9359 19.272 15.9599 19.272C15.4319 18.648 15.0959 18.048 15.0239 17.28L14.0639 17.664C14.1119 17.808 14.1839 17.952 14.2559 18.096L14.5199 17.784L14.5919 17.856L14.3039 18.192C14.3519 18.264 14.3999 18.336 14.4479 18.408L14.6639 18.144L14.7359 18.216L14.4959 18.504C14.5439 18.576 14.5919 18.648 14.6639 18.696L14.8799 18.456L14.9519 18.528L14.7359 18.792C14.8559 18.96 15.0239 19.104 15.2399 19.224Z" fill="#FFE000"/>
<path d="M5.71191 19.248C5.78391 19.248 5.85591 19.296 5.90391 19.344L6.57591 19.08C6.69591 19.008 6.79191 18.912 6.88791 18.816L6.64791 18.528L6.71991 18.456L6.95991 18.744C7.00791 18.672 7.05591 18.624 7.12791 18.552L6.81591 18.24L6.88791 18.168L7.12791 18.48C7.17591 18.408 7.22391 18.336 7.27191 18.264L6.95991 17.88L7.03191 17.808L7.31991 18.144C7.46391 17.856 7.55991 17.592 7.58391 17.352L6.59991 16.896C6.59991 17.808 6.28791 18.552 5.71191 19.248Z" fill="#FFE000"/>
<path d="M2.37593 6.45599V6.19199L2.54393 6.40799C2.68793 6.59999 2.83193 6.76799 2.97593 6.91199C2.87993 6.69599 2.80793 6.43199 2.78393 6.14399C2.35193 5.51999 1.99193 4.91999 1.87193 4.46399C1.60793 5.71199 1.94393 6.55199 2.49593 7.22399C2.42393 6.98399 2.37593 6.74399 2.37593 6.45599Z" fill="#FFE000"/>
<path d="M4.67993 10.848C4.65593 10.824 4.65593 10.8 4.63193 10.776L4.48793 10.56L4.72793 10.632C4.89593 10.68 5.08793 10.704 5.30393 10.704C4.91993 10.608 4.53593 10.416 4.27193 9.98403C3.59993 9.67203 2.92793 9.16803 2.49593 8.56803C2.32793 8.44803 2.15993 8.32803 2.01593 8.16003C2.30393 9.40803 3.52793 10.488 4.67993 10.848Z" fill="#FFE000"/>
<path d="M5.03992 9.84003C4.63192 9.67203 4.34392 9.38403 4.17592 9.09603C3.67192 8.83203 3.09592 8.40003 2.73592 7.77603C2.51992 7.60803 2.32792 7.41603 2.11192 7.17603C2.15992 8.40003 3.16792 9.33603 4.19992 9.84003C4.17592 9.81603 4.17592 9.79203 4.15192 9.74403L4.05592 9.52803L4.27192 9.62403C4.53592 9.74403 4.79992 9.79203 5.03992 9.84003Z" fill="#FFE000"/>
<path d="M4.2479 8.15998C4.2239 8.08798 4.2239 8.01598 4.1999 7.94398L4.1759 7.72798L4.3439 7.84798C4.5359 7.99198 4.7279 8.08798 4.9199 8.18398C4.7519 8.03998 4.6079 7.79998 4.5839 7.46398C3.7439 7.05598 3.3599 6.55198 2.8319 5.92798C2.9039 7.03198 3.5279 7.65598 4.2479 8.15998Z" fill="#FFE000"/>
<path d="M6.0239 12.648C6.1199 12.504 6.2399 12.384 6.3839 12.312C6.1679 12.336 5.9519 12.336 5.7359 12.336C5.0399 12.336 4.4159 12.192 3.8879 11.928C3.7199 11.976 3.5759 12.024 3.4319 12.12C3.9119 12.648 4.8959 12.864 6.0239 12.648Z" fill="#FFE000"/>
<path d="M6.76793 12.888C6.71993 12.888 6.64793 12.888 6.57593 12.888C6.40793 12.888 6.23993 12.864 6.04793 12.84L5.90393 12.816L5.95193 12.744C5.68793 12.792 5.42393 12.816 5.15993 12.816C4.91993 12.816 4.70393 12.792 4.48793 12.768C4.15193 12.864 3.91193 12.984 3.81593 13.2C4.89593 13.512 5.80793 13.344 6.76793 12.888Z" fill="#FFE000"/>
<path d="M6.62393 12.168H6.59993C6.31193 12.168 5.95193 12.12 5.51993 12.024L5.37593 12L5.44793 11.88C5.47193 11.832 5.51993 11.784 5.54393 11.736C4.48793 11.688 3.62393 11.304 2.95193 10.584C2.83193 10.608 2.73593 10.656 2.66393 10.656C3.57593 12.096 5.06393 12.384 6.62393 12.168Z" fill="#FFE000"/>
<path d="M5.63993 11.64C5.68793 11.592 5.73593 11.544 5.78393 11.52C5.35193 11.424 5.01593 11.232 4.79993 10.968C4.31993 10.848 3.79193 10.584 3.33593 10.2C2.99993 9.93596 2.73593 9.64796 2.49593 9.33596C2.37593 9.31196 2.25593 9.28796 2.18393 9.28796C2.90393 10.752 4.00793 11.592 5.63993 11.64Z" fill="#FFE000"/>
<path d="M5.18392 8.23203C6.14392 8.66403 7.05592 8.88003 7.17592 9.91203C6.76792 8.56803 5.56792 8.78403 4.29592 7.92003C4.34392 8.42403 4.70392 8.76003 5.25592 8.97603C5.95192 9.21603 6.64792 9.43203 6.91192 10.128C6.16792 9.04803 5.01592 9.36003 4.10392 8.66403C4.22392 9.09603 4.63192 9.72003 5.47192 9.84003C6.07192 9.98403 6.38392 10.08 6.69592 10.536C6.04792 9.86403 5.08792 10.056 4.22392 9.69603C4.75192 10.92 5.99992 10.536 6.71992 11.04C6.09592 10.752 5.23192 10.896 4.70392 10.728C4.96792 11.136 5.39992 11.352 5.87992 11.448C6.14392 11.28 6.43192 11.28 6.74392 11.256C6.86392 11.256 7.00792 11.232 7.12792 11.232C6.76792 10.848 6.83992 10.176 7.46392 10.2C7.53592 7.99203 5.49592 8.13603 4.70392 7.17603C4.63192 7.77603 4.91992 8.08803 5.18392 8.23203Z" fill="#FFE000"/>
<path d="M8.83196 6.336C9.07196 6.432 9.57596 6.48 9.86396 5.88C9.64796 6 9.35996 6 9.11996 5.976C8.78396 5.952 8.44796 5.88 8.08796 5.904C7.99196 5.904 7.82396 6 7.79996 6.12C8.42396 6 8.59196 6.24 8.83196 6.336Z" fill="#FFE000"/>
<path d="M10.2479 7.70398C10.2479 7.89598 10.2479 8.08798 10.1519 8.23198L10.0319 8.42398L9.98394 8.20798C9.95994 8.13598 9.93594 8.06398 9.91194 7.99198C9.86394 8.13598 9.81594 8.27998 9.71994 8.39998L9.57594 8.61598L9.55194 8.35198C9.55194 8.30398 9.55194 8.27998 9.52794 8.23198C9.50394 8.32798 9.45594 8.42398 9.38394 8.51998L9.35994 8.56798C9.33594 8.73598 9.31194 8.90398 9.28794 8.99998C9.50394 8.95198 9.76794 8.66398 9.86394 8.42398C9.91194 8.56798 10.0079 8.75998 10.1039 8.83198C10.2719 8.63998 10.3199 8.39998 10.3679 8.11198C10.4639 8.25598 10.5839 8.30398 10.7999 8.32798C11.0159 8.30398 11.1359 8.23198 11.2319 8.11198C11.2559 8.39998 11.3279 8.63998 11.4959 8.83198C11.5679 8.75998 11.6879 8.56798 11.7359 8.42398C11.8319 8.63998 12.0959 8.95198 12.3119 8.99998C12.2879 8.90398 12.2639 8.73598 12.2399 8.56798L12.2159 8.54398C12.1439 8.44798 12.0959 8.35198 12.0719 8.25598C12.0719 8.27998 12.0719 8.32798 12.0479 8.37598L11.9999 8.61598L11.8559 8.39998C11.7599 8.27998 11.7119 8.13598 11.6639 7.99198C11.6399 8.06398 11.6159 8.13598 11.5919 8.20798L11.5439 8.42398L11.4239 8.23198C11.3279 8.08798 11.3279 7.89598 11.3279 7.70398C11.2079 7.82398 11.0639 7.91998 10.9439 7.99198C10.9199 8.11198 10.8479 8.23198 10.7759 8.32798C10.7039 8.23198 10.6559 8.08798 10.6079 7.99198C10.5119 7.91998 10.3679 7.82398 10.2479 7.70398Z" fill="#FFE000"/>
<path d="M9.52792 6.40804C9.11992 6.62404 8.78392 6.45604 8.59192 6.31204C8.35192 6.14404 8.11192 6.14404 7.87192 6.19204C8.32792 6.48004 8.15992 7.00804 8.47192 7.15204C8.61592 7.24804 8.95192 7.46404 9.09592 7.84804C9.16792 7.72804 9.23992 7.29604 8.85592 6.81604C8.95192 6.86404 9.07192 7.00804 9.07192 7.00804C9.31192 7.15204 9.50392 7.32004 9.62392 7.51204C9.67192 7.22404 9.52792 6.96004 9.28792 6.67204C9.67192 7.12804 10.1039 7.15204 10.3919 7.05604C10.0559 7.03204 9.69592 6.69604 9.52792 6.40804ZM8.08792 6.26404C8.15992 6.26404 8.30392 6.24004 8.51992 6.36004C8.44792 6.43204 8.27992 6.55204 8.08792 6.26404Z" fill="#FFE000"/>
<path d="M9.64791 7.12805C9.69591 7.24805 9.71991 7.39205 9.69591 7.56005L9.64791 7.82405L9.50391 7.60805C9.40791 7.46405 9.28791 7.34405 9.14391 7.24805C9.23991 7.53605 9.21591 7.75205 9.16791 7.89605C9.23991 8.08805 9.28791 8.30405 9.28791 8.49605C9.43191 8.28005 9.47991 8.06405 9.47991 7.82405C9.55191 7.99205 9.59991 8.16005 9.62391 8.35205C9.76791 8.13605 9.83991 7.92005 9.86391 7.68005C9.95991 7.84805 10.0319 8.01605 10.0559 8.18405C10.1759 8.01605 10.1279 7.70405 10.1039 7.44005C10.2719 7.63205 10.5359 7.87205 10.7039 7.94405C10.6079 7.68005 10.4159 7.44005 10.2239 7.24805C10.1999 7.22405 9.86391 7.27205 9.64791 7.12805Z" fill="#FFE000"/>
<path d="M8.87991 9.55203C8.27991 9.86403 8.30391 10.464 7.99191 10.584C8.06391 10.608 8.11191 10.632 8.18391 10.632C8.25591 10.56 8.30391 10.464 8.35191 10.368C8.54391 10.08 8.75991 9.72003 9.33591 9.57603C9.33591 9.55203 9.31191 9.52803 9.31191 9.50403C9.21591 9.52803 9.14391 9.55203 9.07191 9.55203C9.04791 9.55203 9.02391 9.55203 8.99991 9.55203H8.87991Z" fill="#FFE000"/>
<path d="M5.25592 9.09598C4.77592 8.90398 4.46392 8.63998 4.31992 8.30398C3.83992 8.01598 3.43192 7.65598 3.11992 7.19998C2.87992 6.98398 2.68792 6.74398 2.47192 6.47998C2.47192 7.70398 3.26392 8.49598 4.10392 8.95198C4.07992 8.87998 4.03192 8.78398 4.00792 8.71198L3.93592 8.42398L4.15192 8.59198C4.51192 8.85598 4.87192 8.97598 5.25592 9.09598Z" fill="#FFE000"/>
<path d="M2.01593 7.19996V6.91196L2.20793 7.12796C2.37593 7.34396 2.54393 7.48796 2.71193 7.63196L2.42393 7.27196C2.11193 6.88796 1.89593 6.45596 1.77593 6.02396C1.72793 5.92796 1.67993 5.83196 1.63193 5.73596C1.36793 7.00796 1.82393 7.63196 2.35193 8.25596C2.15993 7.94396 2.03993 7.58396 2.01593 7.19996Z" fill="#FFE000"/>
<path d="M6.52791 14.64C6.40791 14.712 6.28791 14.76 6.14391 14.808L6.45591 14.952C6.45591 14.88 6.50391 14.76 6.52791 14.64Z" fill="#FFE000"/>
<path d="M7.07995 15.336L7.17595 15.384L7.24795 15.336L7.41595 15.408C7.41595 15.288 7.41595 15.12 7.41595 14.976C7.31995 15.096 7.19995 15.24 7.07995 15.336Z" fill="#FFE000"/>
<path d="M7.91997 15.648L8.03997 15.696L8.11197 15.816L8.30397 15.912C8.25597 15.72 8.23197 15.48 8.23197 15.264C8.13597 15.408 8.03997 15.528 7.91997 15.648Z" fill="#FFE000"/>
<path d="M4.51192 14.064L4.84792 14.232C5.59192 14.208 6.19192 13.896 6.79192 13.512V13.488C6.79192 13.272 6.93592 13.008 7.05592 12.84C6.43192 13.176 5.87992 13.368 5.32792 13.44C4.94392 13.632 4.63192 13.824 4.51192 14.064Z" fill="#FFE000"/>
<path d="M19.032 6.40799L19.2 6.19199V6.45599C19.2 6.74399 19.152 6.98399 19.08 7.22399C19.632 6.55199 19.968 5.71199 19.704 4.46399C19.584 4.91999 19.224 5.51999 18.792 6.14399C18.768 6.43199 18.696 6.67199 18.6 6.91199C18.744 6.74399 18.888 6.57599 19.032 6.40799Z" fill="#FFE000"/>
<path d="M17.2799 10.008C17.0159 10.44 16.6319 10.608 16.2479 10.728C16.4639 10.704 16.6799 10.704 16.8239 10.656L17.0639 10.584L16.9199 10.8C16.8959 10.824 16.8959 10.848 16.8719 10.872C18.0239 10.512 19.2479 9.43201 19.5119 8.20801C19.3439 8.35201 19.1759 8.49601 19.0319 8.61601C18.6239 9.21601 17.9519 9.69601 17.2799 10.008Z" fill="#FFE000"/>
<path d="M17.3759 9.86395C18.4079 9.33595 19.4159 8.39995 19.4639 7.19995C19.2719 7.43995 19.0559 7.63195 18.8399 7.79995C18.4799 8.42395 17.8799 8.83195 17.3999 9.11995C17.2319 9.43195 16.9439 9.69595 16.5359 9.86395C16.7999 9.81595 17.0399 9.76795 17.3039 9.67195L17.5199 9.57595L17.4239 9.79195C17.3999 9.79195 17.3999 9.83995 17.3759 9.86395Z" fill="#FFE000"/>
<path d="M16.6319 8.18403C16.8239 8.08803 17.0159 7.99203 17.2079 7.84803L17.3759 7.72803L17.3519 7.94403C17.3519 8.01603 17.3279 8.08803 17.3039 8.16003C18.0479 7.68003 18.6479 7.03203 18.6959 5.95203C18.1919 6.57603 17.8079 7.08003 16.9439 7.48803C16.9439 7.80003 16.7999 8.04003 16.6319 8.18403Z" fill="#FFE000"/>
<path d="M15.8399 12.336C15.6479 12.336 15.4319 12.336 15.1919 12.312C15.3119 12.384 15.4319 12.504 15.5519 12.648C16.6799 12.864 17.6639 12.672 18.1439 12.144C17.9999 12.048 17.8559 11.976 17.6879 11.952C17.1599 12.192 16.5359 12.336 15.8399 12.336Z" fill="#FFE000"/>
<path d="M17.088 12.768C16.872 12.816 16.656 12.816 16.416 12.816C16.152 12.816 15.888 12.792 15.624 12.744L15.672 12.816L15.528 12.84C15.336 12.888 15.168 12.888 15 12.888C14.928 12.888 14.88 12.888 14.808 12.888C15.744 13.344 16.68 13.512 17.736 13.2C17.664 12.984 17.424 12.864 17.088 12.768Z" fill="#FFE000"/>
<path d="M16.0319 11.736C16.0559 11.784 16.1039 11.832 16.1279 11.88L16.1999 12L16.0559 12.024C15.6239 12.12 15.2639 12.168 14.9759 12.168H14.9519C16.4879 12.384 17.9999 12.096 18.9119 10.68C18.8399 10.656 18.7199 10.632 18.6239 10.608C17.9279 11.304 17.0639 11.688 16.0319 11.736Z" fill="#FFE000"/>
<path d="M18.2639 10.2239C17.8079 10.5839 17.2799 10.8479 16.7999 10.9919C16.5599 11.2559 16.2239 11.4479 15.8159 11.5439C15.8639 11.5919 15.9119 11.6159 15.9599 11.6639C17.5919 11.5919 18.6959 10.7519 19.4399 9.33594C19.3679 9.33594 19.2479 9.35994 19.1279 9.38394C18.8639 9.67194 18.5999 9.95994 18.2639 10.2239Z" fill="#FFE000"/>
<path d="M14.4239 11.232C14.5679 11.256 14.6879 11.256 14.8079 11.256C15.1199 11.28 15.4079 11.28 15.6719 11.448C16.1519 11.352 16.5839 11.136 16.8479 10.728C16.3199 10.896 15.4799 10.752 14.8319 11.04C15.5519 10.536 16.7999 10.92 17.3039 9.744C16.4399 10.104 15.4799 9.912 14.8319 10.584C15.1439 10.128 15.4559 10.032 16.0559 9.888C16.9199 9.744 17.3039 9.144 17.4239 8.712C16.5119 9.408 15.3599 9.096 14.6159 10.176C14.9039 9.456 15.5759 9.24 16.2719 9.024C16.8239 8.808 17.1839 8.472 17.2319 7.968C15.9599 8.832 14.7599 8.616 14.3519 9.96C14.4719 8.928 15.4079 8.688 16.3439 8.28C16.6079 8.112 16.8719 7.8 16.8239 7.224C16.0319 8.16 13.9919 8.04 14.0639 10.248C14.7359 10.176 14.8079 10.848 14.4239 11.232Z" fill="#FFE000"/>
<path d="M12.7439 6.336C12.9839 6.216 13.1519 6 13.7759 6.12C13.7519 6 13.6079 5.904 13.4879 5.904C13.1279 5.88 12.7919 5.952 12.4559 5.976C12.2159 6 11.9279 6 11.7119 5.88C11.9999 6.48 12.5039 6.432 12.7439 6.336Z" fill="#FFE000"/>
<path d="M11.4479 7.44005C11.4239 7.70405 11.3759 8.01605 11.4959 8.18405C11.5439 8.01605 11.6159 7.82405 11.6879 7.68005C11.7119 7.92005 11.7839 8.13605 11.9279 8.35205C11.9519 8.16005 11.9999 7.99205 12.0719 7.82405C12.0719 8.06405 12.1199 8.30405 12.2639 8.49605C12.2639 8.28005 12.2879 8.08805 12.3839 7.89605C12.3359 7.75205 12.3119 7.53605 12.4079 7.24805C12.2639 7.34405 12.1439 7.48805 12.0479 7.60805L11.9039 7.82405L11.8559 7.56005C11.8319 7.41605 11.8559 7.27205 11.9039 7.12805C11.6879 7.24805 11.3519 7.22405 11.3039 7.22405C11.1119 7.41605 10.9439 7.65605 10.8239 7.92005C11.0399 7.84805 11.2799 7.63205 11.4479 7.44005Z" fill="#FFE000"/>
<path d="M12.6959 9.55195L12.5999 9.57595C12.5759 9.57595 12.5519 9.57595 12.5279 9.57595C12.4559 9.57595 12.3599 9.55195 12.2879 9.52795C12.2879 9.55195 12.2639 9.57595 12.2639 9.59995C12.8399 9.71995 13.0559 10.08 13.2479 10.392C13.2959 10.488 13.3679 10.584 13.4159 10.656C13.4879 10.656 13.5359 10.632 13.6079 10.608C13.2719 10.464 13.2959 9.86395 12.6959 9.55195Z" fill="#FFE000"/>
<path d="M17.4719 8.95198C18.3119 8.47198 19.1039 7.67998 19.1039 6.47998C18.8879 6.76798 18.6719 6.98398 18.4559 7.19998C18.1679 7.67998 17.7359 8.03998 17.2799 8.32798C17.1359 8.66398 16.8239 8.90398 16.3679 9.09598H16.3439C16.7039 8.99998 17.0879 8.87998 17.4239 8.61598L17.6399 8.44798L17.5679 8.73598C17.5439 8.78398 17.4959 8.85598 17.4719 8.95198Z" fill="#FFE000"/>
<path d="M18.8639 7.63206C19.0319 7.48806 19.1999 7.32006 19.3679 7.12806L19.5599 6.91206V7.20006C19.5359 7.58406 19.4399 7.96806 19.2479 8.30406C19.7759 7.65606 20.2319 7.05606 19.9679 5.78406C19.9199 5.88006 19.8719 5.97606 19.8239 6.07206C19.7039 6.52806 19.4879 6.93606 19.1759 7.32006L18.8639 7.63206Z" fill="#FFE000"/>
<path d="M16.944 13.92C16.8 13.752 16.536 13.608 16.248 13.44C15.696 13.368 15.144 13.176 14.52 12.84C14.664 13.008 14.784 13.272 14.784 13.488V13.512C15.312 13.848 15.84 14.112 16.464 14.184C16.608 14.088 16.776 13.992 16.944 13.92Z" fill="#FFE000"/>
<path d="M15.336 14.784C15.24 14.736 15.144 14.688 15.048 14.64C15.072 14.736 15.072 14.832 15.096 14.904C15.192 14.88 15.264 14.832 15.336 14.784Z" fill="#FFE000"/>
<path d="M14.448 15.288C14.352 15.192 14.256 15.096 14.16 15C14.184 15.168 14.184 15.312 14.16 15.432C14.256 15.384 14.352 15.336 14.448 15.288Z" fill="#FFE000"/>
<path d="M13.2479 15.912C13.3919 15.84 13.5359 15.744 13.7039 15.672C13.5839 15.528 13.4639 15.408 13.3679 15.264C13.3439 15.528 13.3199 15.744 13.2479 15.912Z" fill="#FFE000"/>
<path d="M16.0079 14.424C15.9359 14.328 15.8639 14.232 15.7679 14.136C15.3839 14.016 15.0479 13.8 14.6879 13.584H14.6639C14.6159 13.584 14.5919 13.584 14.5439 13.584C14.3279 13.584 14.0879 13.512 13.8959 13.392C13.8959 13.44 13.8719 13.464 13.8719 13.512C14.3279 14.04 14.8079 14.496 15.4559 14.736C15.6479 14.616 15.8399 14.52 16.0079 14.424Z" fill="#FFE000"/>
<path d="M14.9999 14.976C14.9999 14.856 14.9759 14.736 14.9279 14.592C14.5199 14.352 14.1599 14.016 13.8479 13.632C13.7999 13.776 13.7519 13.92 13.7039 14.064C13.8959 14.52 14.1599 14.904 14.5439 15.24C14.6879 15.144 14.8559 15.072 14.9999 14.976Z" fill="#FFE000"/>
<path d="M14.04 14.856C13.872 14.64 13.752 14.4 13.656 14.16C13.536 14.4 13.392 14.616 13.2 14.808C13.344 15.096 13.536 15.36 13.776 15.624C13.872 15.576 13.968 15.528 14.064 15.48C14.088 15.312 14.064 15.096 14.04 14.856Z" fill="#FFE000"/>
<path d="M13.2479 15.1199C13.1999 15.0479 13.1519 14.9759 13.1279 14.9039C13.0319 14.9999 12.9359 15.0959 12.8159 15.1679V15.5279V15.5999C12.9119 15.7199 13.0079 15.8399 13.1039 15.9599C13.2239 15.7679 13.2719 15.4799 13.2479 15.1199Z" fill="#FFE000"/>
<path d="M12.456 15.624C12.384 15.72 12.336 15.84 12.24 15.912C12.312 16.032 12.408 16.176 12.504 16.296C12.576 16.248 12.648 16.224 12.72 16.176C12.768 16.056 12.816 15.936 12.84 15.768C12.792 15.72 12.744 15.648 12.72 15.6H12.456V15.624Z" fill="#FFE000"/>
<path d="M12.1679 15.984C12.0239 16.128 11.8559 16.272 11.6639 16.368C11.7599 16.44 11.8559 16.512 11.9519 16.584C12.0719 16.512 12.2159 16.464 12.3359 16.392C12.3359 16.32 12.3119 16.272 12.2879 16.2C12.2399 16.128 12.2159 16.056 12.1679 15.984Z" fill="#FFE000"/>
<path d="M11.8079 16.656C11.8079 16.632 11.8079 16.608 11.8079 16.608C11.7359 16.56 11.6399 16.488 11.5679 16.416C11.3999 16.488 11.2079 16.536 10.9919 16.56C11.0639 16.704 11.1359 16.824 11.2319 16.944C11.4239 16.848 11.6159 16.752 11.8079 16.656Z" fill="#FFE000"/>
<path d="M10.8959 16.5599C10.8719 16.5599 10.8479 16.5599 10.8479 16.5599H10.7279C10.7039 16.5599 10.6799 16.5599 10.6799 16.5599C10.6319 16.6799 10.5359 16.7999 10.4879 16.9199L10.7519 17.0399C10.7759 16.9919 10.7999 16.9199 10.7999 16.8719C10.8239 16.9679 10.8479 17.0399 10.8719 17.1359C10.9679 17.0879 11.0639 17.0399 11.1599 16.9919C11.0639 16.8479 10.9679 16.7039 10.8959 16.5599Z" fill="#FFE000"/>
<path d="M9.76794 16.632L9.93594 16.704L9.98394 16.68L10.3679 16.872C10.4399 16.776 10.5119 16.656 10.5599 16.56C10.3679 16.536 10.1759 16.488 9.98394 16.416C9.93594 16.464 9.83994 16.584 9.76794 16.632Z" fill="#FFE000"/>
<path d="M9.91195 16.368C9.71995 16.272 9.55195 16.152 9.40795 15.984C9.35995 16.056 9.33595 16.128 9.28795 16.176C9.28795 16.224 9.23995 16.32 9.23995 16.344L9.69595 16.56C9.74395 16.536 9.83995 16.416 9.91195 16.368Z" fill="#FFE000"/>
<path d="M9.11996 15.624H8.87996C8.83196 15.672 8.80796 15.744 8.75996 15.792C8.75996 15.912 8.78396 16.08 8.80796 16.152L9.11996 16.296C9.19196 16.2 9.31196 16.008 9.35996 15.912C9.26396 15.816 9.19196 15.72 9.11996 15.624Z" fill="#FFE000"/>
<path d="M8.78394 15.528V15.168C8.66394 15.072 8.56794 14.976 8.47194 14.88C8.42394 14.952 8.37594 15.048 8.32794 15.12C8.30394 15.456 8.32794 15.792 8.42394 15.984L8.47194 16.008C8.56794 15.888 8.68794 15.696 8.75994 15.576V15.528H8.78394Z" fill="#FFE000"/>
<path d="M7.94395 14.136C7.82395 14.376 7.70395 14.616 7.53595 14.856C7.51195 15.096 7.48795 15.312 7.51195 15.48L7.82395 15.624C8.06395 15.36 8.25595 15.096 8.39995 14.808C8.20795 14.592 8.06395 14.376 7.94395 14.136Z" fill="#FFE000"/>
<path d="M7.72794 13.608C7.39194 13.992 7.03194 14.352 6.62394 14.592C6.57594 14.76 6.52794 14.952 6.52794 15.096L7.00794 15.312C7.41594 14.976 7.70394 14.472 7.89594 14.016C7.82394 13.896 7.77594 13.752 7.72794 13.608Z" fill="#FFE000"/>
<path d="M7.70396 13.488C7.70396 13.464 7.67996 13.416 7.67996 13.392C7.46396 13.512 7.24796 13.608 7.00796 13.608C6.95996 13.608 6.93596 13.608 6.88796 13.608H6.86396C6.52796 13.824 6.16796 14.016 5.78396 14.16C5.66396 14.304 5.49596 14.472 5.39996 14.592L5.87996 14.832C6.64796 14.568 7.22396 14.064 7.70396 13.488Z" fill="#FFE000"/>
<path d="M16.0319 11.952C15.4079 10.992 14.6159 11.664 13.6559 11.064C13.5839 11.112 13.4879 11.112 13.3679 11.136C13.6319 11.496 13.7999 11.904 13.8719 12.312C14.1839 12.792 14.8319 12.864 15.4559 12.744C15.2399 12.384 14.9519 12.264 14.6159 12.192C14.2319 12.072 13.9199 11.928 13.8239 11.52C14.1599 12.216 15.1679 12.12 16.0319 11.952Z" fill="#FFE000"/>
<path d="M14.6639 13.488C14.6639 13.248 14.4719 12.912 14.3279 12.816C14.1359 12.744 14.0159 12.648 13.9199 12.504C13.9439 12.624 13.9439 12.744 13.9439 12.84C13.9439 12.984 13.9199 13.152 13.8959 13.296C14.1599 13.44 14.4239 13.512 14.6639 13.488Z" fill="#FFE000"/>
<path d="M7.22395 12.8161C7.07995 12.9361 6.91195 13.2481 6.88795 13.4881C7.15195 13.5121 7.39195 13.4401 7.65595 13.2721C7.63195 13.1281 7.63195 12.9841 7.63195 12.8401C7.63195 12.7201 7.63195 12.5761 7.65595 12.4561C7.55995 12.6241 7.43995 12.7201 7.22395 12.8161Z" fill="#FFE000"/>
<path d="M6.91191 12.192C6.57591 12.264 6.28791 12.408 6.07191 12.744C6.71991 12.864 7.39191 12.792 7.70391 12.264C7.77591 11.856 7.96791 11.472 8.20791 11.136C8.08791 11.136 7.99191 11.112 7.91991 11.064C6.98391 11.664 6.16791 10.992 5.54391 11.952C6.40791 12.144 7.41591 12.24 7.72791 11.52C7.60791 11.928 7.29591 12.072 6.91191 12.192Z" fill="#FFE000"/>
<path d="M12.8159 10.512C13.0079 10.656 13.1759 10.848 13.3199 11.016C13.4639 11.016 13.5839 10.992 13.7039 10.92C13.0559 10.8 13.1759 9.864 12.1919 9.672L12.1679 9.696C12.2639 9.792 12.3599 9.912 12.4319 10.056H12.7199H12.8159V10.152V10.512Z" fill="#FFE000"/>
<path d="M8.27995 11.04C8.42395 10.848 8.59195 10.68 8.78395 10.536V10.176V10.08H8.87995H9.11995C9.19195 9.93604 9.28795 9.81604 9.38395 9.72004L9.35995 9.69604C8.37595 9.91204 8.49595 10.824 7.84795 10.944C7.99195 11.016 8.11195 11.04 8.27995 11.04Z" fill="#FFE000"/>
<path d="M9.40795 9.48002C9.43195 9.52802 9.45595 9.57602 9.47995 9.62402C9.57595 9.52802 9.67195 9.45602 9.79195 9.38402C9.76795 9.33602 9.76795 9.26402 9.76795 9.19202C9.64795 9.33602 9.52795 9.43202 9.40795 9.48002Z" fill="#FFE000"/>
<path d="M11.832 9.21594C11.832 9.28794 11.808 9.35994 11.808 9.40794C11.928 9.47994 12.024 9.55194 12.12 9.64794C12.144 9.59994 12.168 9.55194 12.192 9.50394C12.048 9.43194 11.928 9.33594 11.832 9.21594Z" fill="#FFE000"/>
<path d="M10.4639 9.14397C10.4879 9.14397 10.5359 9.14397 10.5599 9.14397C10.5599 9.11997 10.5359 9.07197 10.5359 9.04797C10.5119 9.07197 10.4879 9.11997 10.4639 9.14397Z" fill="#FFE000"/>
<path d="M11.1119 9.14393C11.0879 9.11993 11.0639 9.07193 11.0399 9.02393C11.0399 9.07193 11.0159 9.09593 11.0159 9.11993C11.0399 9.14393 11.0879 9.14393 11.1119 9.14393Z" fill="#FFE000"/>
<path d="M12.264 9.096C12.072 9.048 11.856 8.856 11.736 8.664C11.688 8.76 11.616 8.856 11.544 8.928L11.472 9L11.4 8.928C11.256 8.76 11.184 8.544 11.136 8.328C11.04 8.52 10.488 8.52 10.416 8.328C10.392 8.52 10.32 8.736 10.152 8.928L10.08 9L10.008 8.928C9.93596 8.88 9.88796 8.784 9.81596 8.664C9.67196 8.856 9.45596 9.072 9.28796 9.096L9.21596 9.12C9.16796 9.24 9.09596 9.36 8.99996 9.48C9.26396 9.528 9.64796 9.288 9.83996 8.928C9.83996 9.12 9.83996 9.24 9.86396 9.36C10.008 9.288 10.152 9.216 10.32 9.192C10.416 9.072 10.512 8.904 10.536 8.688C10.584 8.928 10.608 9.048 10.656 9.144C10.68 9.144 10.872 9.144 10.896 9.144C10.944 9.048 10.968 8.904 11.016 8.688C11.04 8.904 11.136 9.072 11.232 9.192C11.4 9.24 11.544 9.288 11.688 9.36C11.712 9.264 11.712 9.144 11.712 8.928C11.928 9.288 12.288 9.528 12.552 9.48C12.456 9.36 12.384 9.24 12.336 9.12L12.264 9.096Z" fill="#FFE000"/>
<path d="M12.3839 15.5279H12.7199V15.1199C13.4159 14.5919 13.8719 13.7759 13.8719 12.8399C13.8719 11.9279 13.4159 11.0879 12.7199 10.5599V10.1519H12.3839C12.0959 9.59994 11.5199 9.21594 10.8479 9.21594H10.7279C10.0559 9.21594 9.47994 9.59994 9.19194 10.1519H8.87994V10.5599C8.18394 11.0879 7.72794 11.9039 7.72794 12.8399C7.72794 13.7519 8.18394 14.5919 8.87994 15.1199V15.5279H9.19194C9.47994 16.0799 10.0559 16.4639 10.7279 16.4639H10.8479C11.5199 16.4639 12.0959 16.0799 12.3839 15.5279ZM10.8479 16.3199H10.7279C10.1279 16.3199 9.59994 15.9839 9.31194 15.4559L9.26394 15.3839H8.99994V15.0719L8.95194 15.0239C8.25594 14.4959 7.87194 13.7039 7.87194 12.8639C7.87194 12.0239 8.27994 11.2319 8.95194 10.7039L8.99994 10.6559V10.3199H9.26394L9.31194 10.2479C9.59994 9.71994 10.1279 9.38394 10.7279 9.38394H10.8479C11.4479 9.38394 11.9759 9.71994 12.2639 10.2479L12.3119 10.3199H12.5759V10.6319L12.6239 10.6799C13.3199 11.2079 13.7039 11.9999 13.7039 12.8399C13.7039 13.6799 13.2959 14.4719 12.6239 14.9999L12.5759 15.0479V15.3599H12.3119L12.2639 15.4319C11.9759 15.9839 11.4479 16.3199 10.8479 16.3199Z" fill="#FFE000"/>
<path d="M12.3119 6.72002C12.0719 7.00802 11.9279 7.27202 11.9759 7.56002C12.0959 7.36802 12.2639 7.20002 12.5279 7.05602C12.5279 7.05602 12.6479 6.88802 12.7439 6.86402C12.3599 7.34402 12.4319 7.75202 12.5039 7.89602C12.6479 7.48802 12.9839 7.27202 13.1279 7.20002C13.4399 7.05602 13.2719 6.50402 13.7279 6.24002C13.4639 6.19202 13.2239 6.19202 13.0079 6.36002C12.8159 6.50402 12.4799 6.67202 12.0719 6.45602C11.9039 6.72002 11.5439 7.08002 11.2319 7.12802C11.4959 7.17602 11.9279 7.15202 12.3119 6.72002ZM13.4879 6.26402C13.2959 6.52802 13.1519 6.40802 13.0559 6.36002C13.2719 6.26402 13.3919 6.28802 13.4879 6.26402Z" fill="#FFE000"/>
<path d="M15.0479 20.496L14.9039 20.64L15.0479 20.184C15.0479 20.184 14.5679 20.232 14.7599 20.64L14.7839 20.712C14.8319 20.832 14.9519 20.952 15.0479 21L15.1199 21.048C15.2159 21.096 15.2639 21.048 15.2159 20.928L15.0479 20.496Z" fill="#FFE000"/>
<path d="M17.2319 19.92L17.1599 19.896C17.0639 19.848 16.9679 19.896 16.9199 19.992L16.6559 20.544L16.8719 20.592L16.6079 20.64L16.5119 20.88C16.5119 20.88 16.7759 20.928 16.9679 20.616C17.0159 20.544 17.1119 20.592 17.1359 20.544L17.3039 20.16C17.3519 20.064 17.3279 19.968 17.2319 19.92Z" fill="#FFE000"/>
<path d="M16.0079 19.608C16.0559 19.512 16.0079 19.416 15.9119 19.368L15.8399 19.32C15.7439 19.272 15.6479 19.32 15.5999 19.416L15.4559 19.704C15.4079 19.8 15.5039 19.848 15.4559 19.944C15.3839 20.184 15.5759 20.472 15.5759 20.472L15.6719 20.232L15.6959 20.184L15.5519 19.848L15.7679 20.064L16.0079 19.608Z" fill="#FFE000"/>
<path d="M16.656 19.848C16.68 19.776 16.656 19.68 16.584 19.656L16.464 19.608C16.392 19.584 16.296 19.608 16.272 19.68L16.008 20.28C15.912 20.496 16.008 20.808 16.008 20.808C16.152 20.712 16.272 20.616 16.344 20.424L16.152 20.4L16.488 20.28L16.656 19.848Z" fill="#FFE000"/>
</svg>
